<svg width="120" height="120" viewBox="0 0 120 120" fill="none" xmlns="http://www.w3.org/2000/svg">
<path d="M49.44 50.34C46.02 50.34 43.32 53.34 43.32 57C43.32 60.66 46.08 63.66 49.44 63.66C52.86 63.66 55.56 60.66 55.56 57C55.62 53.34 52.86 50.34 49.44 50.34ZM71.34 50.34C67.92 50.34 65.22 53.34 65.22 57C65.22 60.66 67.98 63.66 71.34 63.66C74.76 63.66 77.46 60.66 77.46 57C77.46 53.34 74.76 50.34 71.34 50.34Z" fill="white"/>
<path d="M100.5 0H20.1C13.32 0 7.80003 5.52 7.80003 12.36V93.48C7.80003 100.32 13.32 105.84 20.1 105.84H88.14L84.96 94.74L92.64 101.88L99.9 108.6L112.8 120V12.36C112.8 5.52 107.28 0 100.5 0ZM77.34 78.36C77.34 78.36 75.18 75.78 73.38 73.5C81.24 71.28 84.24 66.36 84.24 66.36C81.78 67.98 79.44 69.12 77.34 69.9C74.34 71.16 71.46 72 68.64 72.48C62.88 73.56 57.6 73.26 53.1 72.42C49.68 71.76 46.74 70.8 44.28 69.84C42.9 69.3 41.4 68.64 39.9 67.8C39.72 67.68 39.54 67.62 39.36 67.5C39.24 67.44 39.18 67.38 39.12 67.32C38.04 66.72 37.44 66.3 37.44 66.3C37.44 66.3 40.32 71.1 47.94 73.38C46.14 75.66 43.92 78.36 43.92 78.36C30.66 77.94 25.62 69.24 25.62 69.24C25.62 49.92 34.26 34.26 34.26 34.26C42.9 27.78 51.12 27.96 51.12 27.96L51.72 28.68C40.92 31.8 35.94 36.54 35.94 36.54C35.94 36.54 37.26 35.82 39.48 34.8C45.9 31.98 51 31.2 53.1 31.02C53.46 30.96 53.76 30.9 54.12 30.9C57.78 30.42 61.92 30.3 66.24 30.78C71.94 31.44 78.06 33.12 84.3 36.54C84.3 36.54 79.56 32.04 69.36 28.92L70.2 27.96C70.2 27.96 78.42 27.78 87.06 34.26C87.06 34.26 95.7 49.92 95.7 69.24C95.7 69.24 90.6 77.94 77.34 78.36V78.36Z" fill="white"/>
</svg>
