<?xml version="1.0" encoding="UTF-8" standalone="no"?>
<!DOCTYPE svg PUBLIC "-//W3C//DTD SVG 1.1//EN" "http://www.w3.org/Graphics/SVG/1.1/DTD/svg11.dtd">
<svg width="100%" height="100%" viewBox="0 0 280 347" version="1.1" xmlns="http://www.w3.org/2000/svg" xmlns:xlink="http://www.w3.org/1999/xlink" xml:space="preserve" xmlns:serif="http://www.serif.com/" style="fill-rule:evenodd;clip-rule:evenodd;stroke-linejoin:round;stroke-miterlimit:2;">
    <g transform="matrix(1.5625,0,0,1.5625,0,0)">
        <g transform="matrix(0.0937425,0,0,0.0937425,-4.4305,-4.5305)">
            <g transform="matrix(1,0,0,1,840,200)">
                <rect x="4" y="4" width="56" height="56"/>
            </g>
            <g transform="matrix(1,0,0,1,968,200)">
                <rect x="4" y="4" width="56" height="56"/>
            </g>
            <g transform="matrix(1,0,0,1,1160,200)">
                <rect x="4" y="4" width="56" height="56"/>
            </g>
            <g transform="matrix(1,0,0,1,712,264)">
                <rect x="4" y="4" width="56" height="56"/>
            </g>
            <g transform="matrix(1,0,0,1,840,264)">
                <rect x="4" y="4" width="56" height="56"/>
            </g>
            <g transform="matrix(1,0,0,1,1032,264)">
                <rect x="4" y="4" width="56" height="56"/>
            </g>
            <g transform="matrix(1,0,0,1,1096,264)">
                <rect x="4" y="4" width="56" height="56"/>
            </g>
            <g transform="matrix(1,0,0,1,968,328)">
                <rect x="4" y="4" width="56" height="56"/>
            </g>
            <g transform="matrix(1,0,0,1,1032,328)">
                <rect x="4" y="4" width="56" height="56"/>
            </g>
            <g transform="matrix(1,0,0,1,1224,328)">
                <rect x="4" y="4" width="56" height="56"/>
            </g>
            <g transform="matrix(1,0,0,1,712,392)">
                <rect x="4" y="4" width="56" height="56"/>
            </g>
            <g transform="matrix(1,0,0,1,776,392)">
                <rect x="4" y="4" width="56" height="56"/>
            </g>
            <g transform="matrix(1,0,0,1,840,392)">
                <rect x="4" y="4" width="56" height="56"/>
            </g>
            <g transform="matrix(1,0,0,1,968,392)">
                <rect x="4" y="4" width="56" height="56"/>
            </g>
            <g transform="matrix(1,0,0,1,1032,392)">
                <rect x="4" y="4" width="56" height="56"/>
            </g>
            <g transform="matrix(1,0,0,1,1096,392)">
                <rect x="4" y="4" width="56" height="56"/>
            </g>
            <g transform="matrix(1,0,0,1,1160,392)">
                <rect x="4" y="4" width="56" height="56"/>
            </g>
            <g transform="matrix(1,0,0,1,776,456)">
                <rect x="4" y="4" width="56" height="56"/>
            </g>
            <g transform="matrix(1,0,0,1,1096,456)">
                <rect x="4" y="4" width="56" height="56"/>
            </g>
            <g transform="matrix(1,0,0,1,1160,456)">
                <rect x="4" y="4" width="56" height="56"/>
            </g>
            <g transform="matrix(1,0,0,1,1224,456)">
                <rect x="4" y="4" width="56" height="56"/>
            </g>
            <g transform="matrix(1,0,0,1,712,520)">
                <rect x="4" y="4" width="56" height="56"/>
            </g>
            <g transform="matrix(1,0,0,1,776,520)">
                <rect x="4" y="4" width="56" height="56"/>
            </g>
            <g transform="matrix(1,0,0,1,904,520)">
                <rect x="4" y="4" width="56" height="56"/>
            </g>
            <g transform="matrix(1,0,0,1,968,520)">
                <rect x="4" y="4" width="56" height="56"/>
            </g>
            <g transform="matrix(1,0,0,1,1032,520)">
                <rect x="4" y="4" width="56" height="56"/>
            </g>
            <g transform="matrix(1,0,0,1,1096,520)">
                <rect x="4" y="4" width="56" height="56"/>
            </g>
            <g transform="matrix(1,0,0,1,1160,520)">
                <rect x="4" y="4" width="56" height="56"/>
            </g>
            <g transform="matrix(1,0,0,1,1224,520)">
                <rect x="4" y="4" width="56" height="56"/>
            </g>
            <g transform="matrix(1,0,0,1,712,584)">
                <rect x="4" y="4" width="56" height="56"/>
            </g>
            <g transform="matrix(1,0,0,1,840,584)">
                <rect x="4" y="4" width="56" height="56"/>
            </g>
            <g transform="matrix(1,0,0,1,968,584)">
                <rect x="4" y="4" width="56" height="56"/>
            </g>
            <g transform="matrix(1,0,0,1,1096,584)">
                <rect x="4" y="4" width="56" height="56"/>
            </g>
            <g transform="matrix(1,0,0,1,1224,584)">
                <rect x="4" y="4" width="56" height="56"/>
            </g>
            <g transform="matrix(1,0,0,1,776,648)">
                <rect x="4" y="4" width="56" height="56"/>
            </g>
            <g transform="matrix(1,0,0,1,840,648)">
                <rect x="4" y="4" width="56" height="56"/>
            </g>
            <g transform="matrix(1,0,0,1,904,648)">
                <rect x="4" y="4" width="56" height="56"/>
            </g>
            <g transform="matrix(1,0,0,1,1032,648)">
                <rect x="4" y="4" width="56" height="56"/>
            </g>
            <g transform="matrix(1,0,0,1,1224,648)">
                <rect x="4" y="4" width="56" height="56"/>
            </g>
            <g transform="matrix(1,0,0,1,200,712)">
                <rect x="4" y="4" width="56" height="56"/>
            </g>
            <g transform="matrix(1,0,0,1,264,712)">
                <rect x="4" y="4" width="56" height="56"/>
            </g>
            <g transform="matrix(1,0,0,1,328,712)">
                <rect x="4" y="4" width="56" height="56"/>
            </g>
            <g transform="matrix(1,0,0,1,392,712)">
                <rect x="4" y="4" width="56" height="56"/>
            </g>
            <g transform="matrix(1,0,0,1,456,712)">
                <rect x="4" y="4" width="56" height="56"/>
            </g>
            <g transform="matrix(1,0,0,1,584,712)">
                <rect x="4" y="4" width="56" height="56"/>
            </g>
            <g transform="matrix(1,0,0,1,648,712)">
                <rect x="4" y="4" width="56" height="56"/>
            </g>
            <g transform="matrix(1,0,0,1,712,712)">
                <rect x="4" y="4" width="56" height="56"/>
            </g>
            <g transform="matrix(1,0,0,1,776,712)">
                <rect x="4" y="4" width="56" height="56"/>
            </g>
            <g transform="matrix(1,0,0,1,904,712)">
                <rect x="4" y="4" width="56" height="56"/>
            </g>
            <g transform="matrix(1,0,0,1,968,712)">
                <rect x="4" y="4" width="56" height="56"/>
            </g>
            <g transform="matrix(1,0,0,1,1096,712)">
                <rect x="4" y="4" width="56" height="56"/>
            </g>
            <g transform="matrix(1,0,0,1,1160,712)">
                <rect x="4" y="4" width="56" height="56"/>
            </g>
            <g transform="matrix(1,0,0,1,1288,712)">
                <rect x="4" y="4" width="56" height="56"/>
            </g>
            <g transform="matrix(1,0,0,1,1416,712)">
                <rect x="4" y="4" width="56" height="56"/>
            </g>
            <g transform="matrix(1,0,0,1,1544,712)">
                <rect x="4" y="4" width="56" height="56"/>
            </g>
            <g transform="matrix(1,0,0,1,1672,712)">
                <rect x="4" y="4" width="56" height="56"/>
            </g>
            <g transform="matrix(1,0,0,1,264,776)">
                <rect x="4" y="4" width="56" height="56"/>
            </g>
            <g transform="matrix(1,0,0,1,456,776)">
                <rect x="4" y="4" width="56" height="56"/>
            </g>
            <g transform="matrix(1,0,0,1,520,776)">
                <rect x="4" y="4" width="56" height="56"/>
            </g>
            <g transform="matrix(1,0,0,1,648,776)">
                <rect x="4" y="4" width="56" height="56"/>
            </g>
            <g transform="matrix(1,0,0,1,712,776)">
                <rect x="4" y="4" width="56" height="56"/>
            </g>
            <g transform="matrix(1,0,0,1,840,776)">
                <rect x="4" y="4" width="56" height="56"/>
            </g>
            <g transform="matrix(1,0,0,1,968,776)">
                <rect x="4" y="4" width="56" height="56"/>
            </g>
            <g transform="matrix(1,0,0,1,1096,776)">
                <rect x="4" y="4" width="56" height="56"/>
            </g>
            <g transform="matrix(1,0,0,1,1224,776)">
                <rect x="4" y="4" width="56" height="56"/>
            </g>
            <g transform="matrix(1,0,0,1,1416,776)">
                <rect x="4" y="4" width="56" height="56"/>
            </g>
            <g transform="matrix(1,0,0,1,1736,776)">
                <rect x="4" y="4" width="56" height="56"/>
            </g>
            <g transform="matrix(1,0,0,1,200,840)">
                <rect x="4" y="4" width="56" height="56"/>
            </g>
            <g transform="matrix(1,0,0,1,392,840)">
                <rect x="4" y="4" width="56" height="56"/>
            </g>
            <g transform="matrix(1,0,0,1,584,840)">
                <rect x="4" y="4" width="56" height="56"/>
            </g>
            <g transform="matrix(1,0,0,1,840,840)">
                <rect x="4" y="4" width="56" height="56"/>
            </g>
            <g transform="matrix(1,0,0,1,968,840)">
                <rect x="4" y="4" width="56" height="56"/>
            </g>
            <g transform="matrix(1,0,0,1,1032,840)">
                <rect x="4" y="4" width="56" height="56"/>
            </g>
            <g transform="matrix(1,0,0,1,1288,840)">
                <rect x="4" y="4" width="56" height="56"/>
            </g>
            <g transform="matrix(1,0,0,1,1352,840)">
                <rect x="4" y="4" width="56" height="56"/>
            </g>
            <g transform="matrix(1,0,0,1,1480,840)">
                <rect x="4" y="4" width="56" height="56"/>
            </g>
            <g transform="matrix(1,0,0,1,1608,840)">
                <rect x="4" y="4" width="56" height="56"/>
            </g>
            <g transform="matrix(1,0,0,1,264,904)">
                <rect x="4" y="4" width="56" height="56"/>
            </g>
            <g transform="matrix(1,0,0,1,392,904)">
                <rect x="4" y="4" width="56" height="56"/>
            </g>
            <g transform="matrix(1,0,0,1,456,904)">
                <rect x="4" y="4" width="56" height="56"/>
            </g>
            <g transform="matrix(1,0,0,1,712,904)">
                <rect x="4" y="4" width="56" height="56"/>
            </g>
            <g transform="matrix(1,0,0,1,968,904)">
                <rect x="4" y="4" width="56" height="56"/>
            </g>
            <g transform="matrix(1,0,0,1,1032,904)">
                <rect x="4" y="4" width="56" height="56"/>
            </g>
            <g transform="matrix(1,0,0,1,1224,904)">
                <rect x="4" y="4" width="56" height="56"/>
            </g>
            <g transform="matrix(1,0,0,1,1416,904)">
                <rect x="4" y="4" width="56" height="56"/>
            </g>
            <g transform="matrix(1,0,0,1,200,968)">
                <rect x="4" y="4" width="56" height="56"/>
            </g>
            <g transform="matrix(1,0,0,1,520,968)">
                <rect x="4" y="4" width="56" height="56"/>
            </g>
            <g transform="matrix(1,0,0,1,584,968)">
                <rect x="4" y="4" width="56" height="56"/>
            </g>
            <g transform="matrix(1,0,0,1,648,968)">
                <rect x="4" y="4" width="56" height="56"/>
            </g>
            <g transform="matrix(1,0,0,1,712,968)">
                <rect x="4" y="4" width="56" height="56"/>
            </g>
            <g transform="matrix(1,0,0,1,776,968)">
                <rect x="4" y="4" width="56" height="56"/>
            </g>
            <g transform="matrix(1,0,0,1,840,968)">
                <rect x="4" y="4" width="56" height="56"/>
            </g>
            <g transform="matrix(1,0,0,1,968,968)">
                <rect x="4" y="4" width="56" height="56"/>
            </g>
            <g transform="matrix(1,0,0,1,1032,968)">
                <rect x="4" y="4" width="56" height="56"/>
            </g>
            <g transform="matrix(1,0,0,1,1096,968)">
                <rect x="4" y="4" width="56" height="56"/>
            </g>
            <g transform="matrix(1,0,0,1,1160,968)">
                <rect x="4" y="4" width="56" height="56"/>
            </g>
            <g transform="matrix(1,0,0,1,1224,968)">
                <rect x="4" y="4" width="56" height="56"/>
            </g>
            <g transform="matrix(1,0,0,1,1288,968)">
                <rect x="4" y="4" width="56" height="56"/>
            </g>
            <g transform="matrix(1,0,0,1,1416,968)">
                <rect x="4" y="4" width="56" height="56"/>
            </g>
            <g transform="matrix(1,0,0,1,1480,968)">
                <rect x="4" y="4" width="56" height="56"/>
            </g>
            <g transform="matrix(1,0,0,1,1544,968)">
                <rect x="4" y="4" width="56" height="56"/>
            </g>
            <g transform="matrix(1,0,0,1,1672,968)">
                <rect x="4" y="4" width="56" height="56"/>
            </g>
            <g transform="matrix(1,0,0,1,1736,968)">
                <rect x="4" y="4" width="56" height="56"/>
            </g>
            <g transform="matrix(1,0,0,1,200,1032)">
                <rect x="4" y="4" width="56" height="56"/>
            </g>
            <g transform="matrix(1,0,0,1,328,1032)">
                <rect x="4" y="4" width="56" height="56"/>
            </g>
            <g transform="matrix(1,0,0,1,392,1032)">
                <rect x="4" y="4" width="56" height="56"/>
            </g>
            <g transform="matrix(1,0,0,1,520,1032)">
                <rect x="4" y="4" width="56" height="56"/>
            </g>
            <g transform="matrix(1,0,0,1,904,1032)">
                <rect x="4" y="4" width="56" height="56"/>
            </g>
            <g transform="matrix(1,0,0,1,968,1032)">
                <rect x="4" y="4" width="56" height="56"/>
            </g>
            <g transform="matrix(1,0,0,1,1160,1032)">
                <rect x="4" y="4" width="56" height="56"/>
            </g>
            <g transform="matrix(1,0,0,1,1352,1032)">
                <rect x="4" y="4" width="56" height="56"/>
            </g>
            <g transform="matrix(1,0,0,1,1416,1032)">
                <rect x="4" y="4" width="56" height="56"/>
            </g>
            <g transform="matrix(1,0,0,1,1480,1032)">
                <rect x="4" y="4" width="56" height="56"/>
            </g>
            <g transform="matrix(1,0,0,1,1672,1032)">
                <rect x="4" y="4" width="56" height="56"/>
            </g>
            <g transform="matrix(1,0,0,1,1736,1032)">
                <rect x="4" y="4" width="56" height="56"/>
            </g>
            <g transform="matrix(1,0,0,1,200,1096)">
                <rect x="4" y="4" width="56" height="56"/>
            </g>
            <g transform="matrix(1,0,0,1,328,1096)">
                <rect x="4" y="4" width="56" height="56"/>
            </g>
            <g transform="matrix(1,0,0,1,456,1096)">
                <rect x="4" y="4" width="56" height="56"/>
            </g>
            <g transform="matrix(1,0,0,1,584,1096)">
                <rect x="4" y="4" width="56" height="56"/>
            </g>
            <g transform="matrix(1,0,0,1,648,1096)">
                <rect x="4" y="4" width="56" height="56"/>
            </g>
            <g transform="matrix(1,0,0,1,840,1096)">
                <rect x="4" y="4" width="56" height="56"/>
            </g>
            <g transform="matrix(1,0,0,1,1032,1096)">
                <rect x="4" y="4" width="56" height="56"/>
            </g>
            <g transform="matrix(1,0,0,1,1096,1096)">
                <rect x="4" y="4" width="56" height="56"/>
            </g>
            <g transform="matrix(1,0,0,1,1160,1096)">
                <rect x="4" y="4" width="56" height="56"/>
            </g>
            <g transform="matrix(1,0,0,1,1288,1096)">
                <rect x="4" y="4" width="56" height="56"/>
            </g>
            <g transform="matrix(1,0,0,1,1352,1096)">
                <rect x="4" y="4" width="56" height="56"/>
            </g>
            <g transform="matrix(1,0,0,1,1480,1096)">
                <rect x="4" y="4" width="56" height="56"/>
            </g>
            <g transform="matrix(1,0,0,1,1608,1096)">
                <rect x="4" y="4" width="56" height="56"/>
            </g>
            <g transform="matrix(1,0,0,1,200,1160)">
                <rect x="4" y="4" width="56" height="56"/>
            </g>
            <g transform="matrix(1,0,0,1,328,1160)">
                <rect x="4" y="4" width="56" height="56"/>
            </g>
            <g transform="matrix(1,0,0,1,456,1160)">
                <rect x="4" y="4" width="56" height="56"/>
            </g>
            <g transform="matrix(1,0,0,1,648,1160)">
                <rect x="4" y="4" width="56" height="56"/>
            </g>
            <g transform="matrix(1,0,0,1,712,1160)">
                <rect x="4" y="4" width="56" height="56"/>
            </g>
            <g transform="matrix(1,0,0,1,776,1160)">
                <rect x="4" y="4" width="56" height="56"/>
            </g>
            <g transform="matrix(1,0,0,1,904,1160)">
                <rect x="4" y="4" width="56" height="56"/>
            </g>
            <g transform="matrix(1,0,0,1,1224,1160)">
                <rect x="4" y="4" width="56" height="56"/>
            </g>
            <g transform="matrix(1,0,0,1,1672,1160)">
                <rect x="4" y="4" width="56" height="56"/>
            </g>
            <g transform="matrix(1,0,0,1,1736,1160)">
                <rect x="4" y="4" width="56" height="56"/>
            </g>
            <g transform="matrix(1,0,0,1,200,1224)">
                <rect x="4" y="4" width="56" height="56"/>
            </g>
            <g transform="matrix(1,0,0,1,328,1224)">
                <rect x="4" y="4" width="56" height="56"/>
            </g>
            <g transform="matrix(1,0,0,1,392,1224)">
                <rect x="4" y="4" width="56" height="56"/>
            </g>
            <g transform="matrix(1,0,0,1,520,1224)">
                <rect x="4" y="4" width="56" height="56"/>
            </g>
            <g transform="matrix(1,0,0,1,584,1224)">
                <rect x="4" y="4" width="56" height="56"/>
            </g>
            <g transform="matrix(1,0,0,1,712,1224)">
                <rect x="4" y="4" width="56" height="56"/>
            </g>
            <g transform="matrix(1,0,0,1,840,1224)">
                <rect x="4" y="4" width="56" height="56"/>
            </g>
            <g transform="matrix(1,0,0,1,1032,1224)">
                <rect x="4" y="4" width="56" height="56"/>
            </g>
            <g transform="matrix(1,0,0,1,1160,1224)">
                <rect x="4" y="4" width="56" height="56"/>
            </g>
            <g transform="matrix(1,0,0,1,1224,1224)">
                <rect x="4" y="4" width="56" height="56"/>
            </g>
            <g transform="matrix(1,0,0,1,1288,1224)">
                <rect x="4" y="4" width="56" height="56"/>
            </g>
            <g transform="matrix(1,0,0,1,1352,1224)">
                <rect x="4" y="4" width="56" height="56"/>
            </g>
            <g transform="matrix(1,0,0,1,1416,1224)">
                <rect x="4" y="4" width="56" height="56"/>
            </g>
            <g transform="matrix(1,0,0,1,1480,1224)">
                <rect x="4" y="4" width="56" height="56"/>
            </g>
            <g transform="matrix(1,0,0,1,1544,1224)">
                <rect x="4" y="4" width="56" height="56"/>
            </g>
            <g transform="matrix(1,0,0,1,1736,1224)">
                <rect x="4" y="4" width="56" height="56"/>
            </g>
            <g transform="matrix(1,0,0,1,712,1288)">
                <rect x="4" y="4" width="56" height="56"/>
            </g>
            <g transform="matrix(1,0,0,1,840,1288)">
                <rect x="4" y="4" width="56" height="56"/>
            </g>
            <g transform="matrix(1,0,0,1,968,1288)">
                <rect x="4" y="4" width="56" height="56"/>
            </g>
            <g transform="matrix(1,0,0,1,1096,1288)">
                <rect x="4" y="4" width="56" height="56"/>
            </g>
            <g transform="matrix(1,0,0,1,1224,1288)">
                <rect x="4" y="4" width="56" height="56"/>
            </g>
            <g transform="matrix(1,0,0,1,1480,1288)">
                <rect x="4" y="4" width="56" height="56"/>
            </g>
            <g transform="matrix(1,0,0,1,1736,1288)">
                <rect x="4" y="4" width="56" height="56"/>
            </g>
            <g transform="matrix(1,0,0,1,712,1352)">
                <rect x="4" y="4" width="56" height="56"/>
            </g>
            <g transform="matrix(1,0,0,1,776,1352)">
                <rect x="4" y="4" width="56" height="56"/>
            </g>
            <g transform="matrix(1,0,0,1,1032,1352)">
                <rect x="4" y="4" width="56" height="56"/>
            </g>
            <g transform="matrix(1,0,0,1,1096,1352)">
                <rect x="4" y="4" width="56" height="56"/>
            </g>
            <g transform="matrix(1,0,0,1,1160,1352)">
                <rect x="4" y="4" width="56" height="56"/>
            </g>
            <g transform="matrix(1,0,0,1,1224,1352)">
                <rect x="4" y="4" width="56" height="56"/>
            </g>
            <g transform="matrix(1,0,0,1,1352,1352)">
                <rect x="4" y="4" width="56" height="56"/>
            </g>
            <g transform="matrix(1,0,0,1,1480,1352)">
                <rect x="4" y="4" width="56" height="56"/>
            </g>
            <g transform="matrix(1,0,0,1,1608,1352)">
                <rect x="4" y="4" width="56" height="56"/>
            </g>
            <g transform="matrix(1,0,0,1,1672,1352)">
                <rect x="4" y="4" width="56" height="56"/>
            </g>
            <g transform="matrix(1,0,0,1,1736,1352)">
                <rect x="4" y="4" width="56" height="56"/>
            </g>
            <g transform="matrix(1,0,0,1,904,1416)">
                <rect x="4" y="4" width="56" height="56"/>
            </g>
            <g transform="matrix(1,0,0,1,1032,1416)">
                <rect x="4" y="4" width="56" height="56"/>
            </g>
            <g transform="matrix(1,0,0,1,1160,1416)">
                <rect x="4" y="4" width="56" height="56"/>
            </g>
            <g transform="matrix(1,0,0,1,1224,1416)">
                <rect x="4" y="4" width="56" height="56"/>
            </g>
            <g transform="matrix(1,0,0,1,1480,1416)">
                <rect x="4" y="4" width="56" height="56"/>
            </g>
            <g transform="matrix(1,0,0,1,1544,1416)">
                <rect x="4" y="4" width="56" height="56"/>
            </g>
            <g transform="matrix(1,0,0,1,712,1480)">
                <rect x="4" y="4" width="56" height="56"/>
            </g>
            <g transform="matrix(1,0,0,1,1032,1480)">
                <rect x="4" y="4" width="56" height="56"/>
            </g>
            <g transform="matrix(1,0,0,1,1096,1480)">
                <rect x="4" y="4" width="56" height="56"/>
            </g>
            <g transform="matrix(1,0,0,1,1224,1480)">
                <rect x="4" y="4" width="56" height="56"/>
            </g>
            <g transform="matrix(1,0,0,1,1288,1480)">
                <rect x="4" y="4" width="56" height="56"/>
            </g>
            <g transform="matrix(1,0,0,1,1352,1480)">
                <rect x="4" y="4" width="56" height="56"/>
            </g>
            <g transform="matrix(1,0,0,1,1416,1480)">
                <rect x="4" y="4" width="56" height="56"/>
            </g>
            <g transform="matrix(1,0,0,1,1480,1480)">
                <rect x="4" y="4" width="56" height="56"/>
            </g>
            <g transform="matrix(1,0,0,1,1544,1480)">
                <rect x="4" y="4" width="56" height="56"/>
            </g>
            <g transform="matrix(1,0,0,1,712,1544)">
                <rect x="4" y="4" width="56" height="56"/>
            </g>
            <g transform="matrix(1,0,0,1,776,1544)">
                <rect x="4" y="4" width="56" height="56"/>
            </g>
            <g transform="matrix(1,0,0,1,840,1544)">
                <rect x="4" y="4" width="56" height="56"/>
            </g>
            <g transform="matrix(1,0,0,1,904,1544)">
                <rect x="4" y="4" width="56" height="56"/>
            </g>
            <g transform="matrix(1,0,0,1,1096,1544)">
                <rect x="4" y="4" width="56" height="56"/>
            </g>
            <g transform="matrix(1,0,0,1,1160,1544)">
                <rect x="4" y="4" width="56" height="56"/>
            </g>
            <g transform="matrix(1,0,0,1,1224,1544)">
                <rect x="4" y="4" width="56" height="56"/>
            </g>
            <g transform="matrix(1,0,0,1,1288,1544)">
                <rect x="4" y="4" width="56" height="56"/>
            </g>
            <g transform="matrix(1,0,0,1,1416,1544)">
                <rect x="4" y="4" width="56" height="56"/>
            </g>
            <g transform="matrix(1,0,0,1,1480,1544)">
                <rect x="4" y="4" width="56" height="56"/>
            </g>
            <g transform="matrix(1,0,0,1,1544,1544)">
                <rect x="4" y="4" width="56" height="56"/>
            </g>
            <g transform="matrix(1,0,0,1,1672,1544)">
                <rect x="4" y="4" width="56" height="56"/>
            </g>
            <g transform="matrix(1,0,0,1,1736,1544)">
                <rect x="4" y="4" width="56" height="56"/>
            </g>
            <g transform="matrix(1,0,0,1,712,1608)">
                <rect x="4" y="4" width="56" height="56"/>
            </g>
            <g transform="matrix(1,0,0,1,776,1608)">
                <rect x="4" y="4" width="56" height="56"/>
            </g>
            <g transform="matrix(1,0,0,1,904,1608)">
                <rect x="4" y="4" width="56" height="56"/>
            </g>
            <g transform="matrix(1,0,0,1,968,1608)">
                <rect x="4" y="4" width="56" height="56"/>
            </g>
            <g transform="matrix(1,0,0,1,1032,1608)">
                <rect x="4" y="4" width="56" height="56"/>
            </g>
            <g transform="matrix(1,0,0,1,1096,1608)">
                <rect x="4" y="4" width="56" height="56"/>
            </g>
            <g transform="matrix(1,0,0,1,1288,1608)">
                <rect x="4" y="4" width="56" height="56"/>
            </g>
            <g transform="matrix(1,0,0,1,1416,1608)">
                <rect x="4" y="4" width="56" height="56"/>
            </g>
            <g transform="matrix(1,0,0,1,1480,1608)">
                <rect x="4" y="4" width="56" height="56"/>
            </g>
            <g transform="matrix(1,0,0,1,1608,1608)">
                <rect x="4" y="4" width="56" height="56"/>
            </g>
            <g transform="matrix(1,0,0,1,1736,1608)">
                <rect x="4" y="4" width="56" height="56"/>
            </g>
            <g transform="matrix(1,0,0,1,712,1672)">
                <rect x="4" y="4" width="56" height="56"/>
            </g>
            <g transform="matrix(1,0,0,1,904,1672)">
                <rect x="4" y="4" width="56" height="56"/>
            </g>
            <g transform="matrix(1,0,0,1,968,1672)">
                <rect x="4" y="4" width="56" height="56"/>
            </g>
            <g transform="matrix(1,0,0,1,1032,1672)">
                <rect x="4" y="4" width="56" height="56"/>
            </g>
            <g transform="matrix(1,0,0,1,1160,1672)">
                <rect x="4" y="4" width="56" height="56"/>
            </g>
            <g transform="matrix(1,0,0,1,1224,1672)">
                <rect x="4" y="4" width="56" height="56"/>
            </g>
            <g transform="matrix(1,0,0,1,1288,1672)">
                <rect x="4" y="4" width="56" height="56"/>
            </g>
            <g transform="matrix(1,0,0,1,1352,1672)">
                <rect x="4" y="4" width="56" height="56"/>
            </g>
            <g transform="matrix(1,0,0,1,1480,1672)">
                <rect x="4" y="4" width="56" height="56"/>
            </g>
            <g transform="matrix(1,0,0,1,1544,1672)">
                <rect x="4" y="4" width="56" height="56"/>
            </g>
            <g transform="matrix(1,0,0,1,1608,1672)">
                <rect x="4" y="4" width="56" height="56"/>
            </g>
            <g transform="matrix(1,0,0,1,1672,1672)">
                <rect x="4" y="4" width="56" height="56"/>
            </g>
            <g transform="matrix(1,0,0,1,712,1736)">
                <rect x="4" y="4" width="56" height="56"/>
            </g>
            <g transform="matrix(1,0,0,1,1096,1736)">
                <rect x="4" y="4" width="56" height="56"/>
            </g>
            <g transform="matrix(1,0,0,1,1160,1736)">
                <rect x="4" y="4" width="56" height="56"/>
            </g>
            <g transform="matrix(1,0,0,1,1288,1736)">
                <rect x="4" y="4" width="56" height="56"/>
            </g>
            <g transform="matrix(1,0,0,1,1544,1736)">
                <rect x="4" y="4" width="56" height="56"/>
            </g>
            <g transform="matrix(1,0,0,1,1608,1736)">
                <rect x="4" y="4" width="56" height="56"/>
            </g>
            <g transform="matrix(1,0,0,1,1672,1736)">
                <rect x="4" y="4" width="56" height="56"/>
            </g>
            <g transform="matrix(1,0,0,1,1736,1736)">
                <rect x="4" y="4" width="56" height="56"/>
            </g>
            <g id="Ebene_1" transform="matrix(1,0,0,1,200,200)">
                <path d="M13.568,-0.064C6.08,-0.064 -0.064,6.08 -0.064,13.568L-0.064,434.432C-0.064,441.92 6.016,448.064 13.568,448.064L434.432,448.064C441.92,448.064 448.064,441.984 448.064,434.432L448.064,13.568C448.064,6.08 441.984,-0.064 434.432,-0.064L13.568,-0.064ZM384,71.808L384,376.192C384,380.544 380.48,384 376.192,384L71.808,384C67.456,384 64,380.48 64,376.192L64,71.808C64,67.456 67.52,64 71.808,64L376.192,64C380.544,64 384,67.52 384,71.808Z" style="fill-rule:nonzero;"/>
            </g>
            <g id="Ebene_11" serif:id="Ebene_1" transform="matrix(1,0,0,1,200,200)">
                <path d="M320,306.432L320,141.568C320,134.08 313.92,127.936 306.368,127.936L141.568,127.936C134.08,127.936 127.936,134.016 127.936,141.568L127.936,306.432C127.936,313.92 134.016,320.064 141.568,320.064L306.368,320.064C313.856,320.064 320,313.984 320,306.432Z" style="fill-rule:nonzero;"/>
            </g>
            <g id="Ebene_12" serif:id="Ebene_1" transform="matrix(1,0,0,1,1352,200)">
                <path d="M13.568,-0.064C6.08,-0.064 -0.064,6.08 -0.064,13.568L-0.064,434.432C-0.064,441.92 6.016,448.064 13.568,448.064L434.432,448.064C441.92,448.064 448.064,441.984 448.064,434.432L448.064,13.568C448.064,6.08 441.984,-0.064 434.432,-0.064L13.568,-0.064ZM384,71.808L384,376.192C384,380.544 380.48,384 376.192,384L71.808,384C67.456,384 64,380.48 64,376.192L64,71.808C64,67.456 67.52,64 71.808,64L376.192,64C380.544,64 384,67.52 384,71.808Z" style="fill-rule:nonzero;"/>
            </g>
            <g id="Ebene_13" serif:id="Ebene_1" transform="matrix(1,0,0,1,1352,200)">
                <path d="M320,306.432L320,141.568C320,134.08 313.92,127.936 306.368,127.936L141.568,127.936C134.08,127.936 127.936,134.016 127.936,141.568L127.936,306.432C127.936,313.92 134.016,320.064 141.568,320.064L306.368,320.064C313.856,320.064 320,313.984 320,306.432Z" style="fill-rule:nonzero;"/>
            </g>
            <g id="Ebene_14" serif:id="Ebene_1" transform="matrix(1,0,0,1,200,1352)">
                <path d="M13.568,-0.064C6.08,-0.064 -0.064,6.08 -0.064,13.568L-0.064,434.432C-0.064,441.92 6.016,448.064 13.568,448.064L434.432,448.064C441.92,448.064 448.064,441.984 448.064,434.432L448.064,13.568C448.064,6.08 441.984,-0.064 434.432,-0.064L13.568,-0.064ZM384,71.808L384,376.192C384,380.544 380.48,384 376.192,384L71.808,384C67.456,384 64,380.48 64,376.192L64,71.808C64,67.456 67.52,64 71.808,64L376.192,64C380.544,64 384,67.52 384,71.808Z" style="fill-rule:nonzero;"/>
            </g>
            <g id="Ebene_15" serif:id="Ebene_1" transform="matrix(1,0,0,1,200,1352)">
                <path d="M320,306.432L320,141.568C320,134.08 313.92,127.936 306.368,127.936L141.568,127.936C134.08,127.936 127.936,134.016 127.936,141.568L127.936,306.432C127.936,313.92 134.016,320.064 141.568,320.064L306.368,320.064C313.856,320.064 320,313.984 320,306.432Z" style="fill-rule:nonzero;"/>
            </g>
        </g>
        <path id="FrameBody" d="M8.768,221.824L169.856,221.824C174.72,221.824 178.624,217.856 178.624,213.056L178.624,8.768C178.624,3.904 174.656,0 169.856,0L8.832,0C3.968,0 0.064,3.968 0,8.768L0,213.056C0,217.92 3.968,221.824 8.768,221.824ZM6.784,11.456C6.784,8.832 8.896,6.72 11.52,6.72L167.168,6.72C169.792,6.72 171.904,8.832 171.904,11.456L171.904,167.168C171.904,169.792 169.792,171.904 167.168,171.904L11.52,171.904C8.896,171.904 6.784,169.792 6.784,167.168L6.784,11.456Z" style="fill-rule:nonzero;"/>
        <g id="TextArea" transform="matrix(0.681144,0,0,0.681144,0.901636,169.66)">
            <g>
                <path d="M57.791,44.142C57.791,46.864 56.808,49.009 54.841,50.576C52.875,52.144 50.138,52.928 46.633,52.928C42.928,52.928 40.063,52.436 38.039,51.453L38.039,47.69C39.365,48.26 40.815,48.709 42.39,49.037C43.964,49.365 45.436,49.529 46.804,49.529C49.141,49.529 50.901,49.08 52.084,48.182C53.266,47.284 53.858,46.052 53.858,44.484C53.858,43.444 53.644,42.589 53.217,41.919C52.789,41.249 52.073,40.622 51.068,40.038C50.064,39.453 48.542,38.791 46.504,38.05C43.612,36.995 41.545,35.752 40.305,34.32C39.066,32.887 38.446,31.038 38.446,28.772C38.446,26.336 39.361,24.397 41.192,22.958C43.024,21.519 45.436,20.799 48.428,20.799C51.549,20.799 54.421,21.383 57.043,22.552L55.825,25.929C53.145,24.818 50.651,24.262 48.343,24.262C46.49,24.262 45.04,24.661 43.993,25.459C42.945,26.257 42.422,27.376 42.422,28.815C42.422,29.841 42.625,30.693 43.031,31.37C43.437,32.047 44.093,32.663 44.997,33.219C45.902,33.774 47.324,34.409 49.262,35.121C51.585,35.976 53.316,36.806 54.456,37.611C55.596,38.417 56.437,39.343 56.979,40.39C57.52,41.438 57.791,42.688 57.791,44.142ZM77.479,24.262C74.115,24.262 71.472,25.388 69.548,27.639C67.624,29.891 66.662,32.969 66.662,36.874C66.662,40.907 67.596,44.017 69.463,46.205C71.329,48.392 73.987,49.486 77.436,49.486C79.659,49.486 82.16,49.073 84.939,48.246L84.939,51.666C83.614,52.151 82.338,52.482 81.113,52.66C79.887,52.838 78.476,52.928 76.88,52.928C72.277,52.928 68.732,51.527 66.245,48.727C63.759,45.927 62.515,41.962 62.515,36.831C62.515,33.611 63.11,30.789 64.3,28.366C65.49,25.944 67.222,24.077 69.495,22.766C71.768,21.455 74.443,20.799 77.521,20.799C80.828,20.799 83.706,21.412 86.157,22.637L84.576,25.972C82.082,24.832 79.716,24.262 77.479,24.262ZM111.36,52.5L107.598,42.817L95.2,42.817L91.48,52.5L87.504,52.5L99.71,21.12L103.258,21.12L115.443,52.5L111.36,52.5ZM106.422,39.332L102.916,29.863L101.42,25.181C100.992,26.891 100.544,28.452 100.073,29.863L96.525,39.332L106.422,39.332ZM144.514,52.5L139.919,52.5L123.181,26.549L123.01,26.549L123.117,28.281C123.288,30.874 123.373,33.126 123.373,35.036L123.373,52.5L119.739,52.5L119.739,21.248L124.293,21.248L125.254,22.766L135.515,38.627L140.966,47.113L141.137,47.113C141.109,46.771 141.052,45.549 140.966,43.447C140.88,41.345 140.838,39.824 140.838,38.883L140.838,21.248L144.514,21.248L144.514,52.5ZM178.161,52.5L167.857,25.096L167.686,25.096C167.9,27.376 168.007,30.19 168.007,33.539L168.007,52.5L164.373,52.5L164.373,21.248L170.187,21.248L179.828,46.857L179.999,46.857L189.811,21.248L195.582,21.248L195.582,52.5L191.692,52.5L191.692,33.283C191.692,31.145 191.792,28.43 191.991,25.138L191.82,25.138L181.388,52.5L178.161,52.5ZM221.554,52.5L204.09,52.5L204.09,21.248L221.554,21.248L221.554,24.711L208.023,24.711L208.023,34.458L220.763,34.458L220.763,37.879L208.023,37.879L208.023,49.037L221.554,49.037L221.554,52.5Z" style="fill:white;fill-rule:nonzero;"/>
            </g>
        </g>
    </g>
</svg>
