<?xml version="1.0" encoding="UTF-8" standalone="no"?>
<!DOCTYPE svg PUBLIC "-//W3C//DTD SVG 1.1//EN" "http://www.w3.org/Graphics/SVG/1.1/DTD/svg11.dtd">
<svg width="100%" height="100%" viewBox="0 0 280 347" version="1.1" xmlns="http://www.w3.org/2000/svg" xmlns:xlink="http://www.w3.org/1999/xlink" xml:space="preserve" xmlns:serif="http://www.serif.com/" style="fill-rule:evenodd;clip-rule:evenodd;stroke-linejoin:round;stroke-miterlimit:2;">
    <g transform="matrix(0.146473,0,0,0.146473,-6.92266,-7.30701)">
        <g transform="matrix(1,0,0,1,840,200)">
            <rect x="4" y="4" width="56" height="56"/>
        </g>
        <g transform="matrix(1,0,0,1,968,200)">
            <rect x="4" y="4" width="56" height="56"/>
        </g>
        <g transform="matrix(1,0,0,1,1160,200)">
            <rect x="4" y="4" width="56" height="56"/>
        </g>
        <g transform="matrix(1,0,0,1,712,264)">
            <rect x="4" y="4" width="56" height="56"/>
        </g>
        <g transform="matrix(1,0,0,1,840,264)">
            <rect x="4" y="4" width="56" height="56"/>
        </g>
        <g transform="matrix(1,0,0,1,1032,264)">
            <rect x="4" y="4" width="56" height="56"/>
        </g>
        <g transform="matrix(1,0,0,1,1096,264)">
            <rect x="4" y="4" width="56" height="56"/>
        </g>
        <g transform="matrix(1,0,0,1,968,328)">
            <rect x="4" y="4" width="56" height="56"/>
        </g>
        <g transform="matrix(1,0,0,1,1032,328)">
            <rect x="4" y="4" width="56" height="56"/>
        </g>
        <g transform="matrix(1,0,0,1,1224,328)">
            <rect x="4" y="4" width="56" height="56"/>
        </g>
        <g transform="matrix(1,0,0,1,712,392)">
            <rect x="4" y="4" width="56" height="56"/>
        </g>
        <g transform="matrix(1,0,0,1,776,392)">
            <rect x="4" y="4" width="56" height="56"/>
        </g>
        <g transform="matrix(1,0,0,1,840,392)">
            <rect x="4" y="4" width="56" height="56"/>
        </g>
        <g transform="matrix(1,0,0,1,968,392)">
            <rect x="4" y="4" width="56" height="56"/>
        </g>
        <g transform="matrix(1,0,0,1,1032,392)">
            <rect x="4" y="4" width="56" height="56"/>
        </g>
        <g transform="matrix(1,0,0,1,1096,392)">
            <rect x="4" y="4" width="56" height="56"/>
        </g>
        <g transform="matrix(1,0,0,1,1160,392)">
            <rect x="4" y="4" width="56" height="56"/>
        </g>
        <g transform="matrix(1,0,0,1,776,456)">
            <rect x="4" y="4" width="56" height="56"/>
        </g>
        <g transform="matrix(1,0,0,1,1096,456)">
            <rect x="4" y="4" width="56" height="56"/>
        </g>
        <g transform="matrix(1,0,0,1,1160,456)">
            <rect x="4" y="4" width="56" height="56"/>
        </g>
        <g transform="matrix(1,0,0,1,1224,456)">
            <rect x="4" y="4" width="56" height="56"/>
        </g>
        <g transform="matrix(1,0,0,1,712,520)">
            <rect x="4" y="4" width="56" height="56"/>
        </g>
        <g transform="matrix(1,0,0,1,776,520)">
            <rect x="4" y="4" width="56" height="56"/>
        </g>
        <g transform="matrix(1,0,0,1,904,520)">
            <rect x="4" y="4" width="56" height="56"/>
        </g>
        <g transform="matrix(1,0,0,1,968,520)">
            <rect x="4" y="4" width="56" height="56"/>
        </g>
        <g transform="matrix(1,0,0,1,1032,520)">
            <rect x="4" y="4" width="56" height="56"/>
        </g>
        <g transform="matrix(1,0,0,1,1096,520)">
            <rect x="4" y="4" width="56" height="56"/>
        </g>
        <g transform="matrix(1,0,0,1,1160,520)">
            <rect x="4" y="4" width="56" height="56"/>
        </g>
        <g transform="matrix(1,0,0,1,1224,520)">
            <rect x="4" y="4" width="56" height="56"/>
        </g>
        <g transform="matrix(1,0,0,1,712,584)">
            <rect x="4" y="4" width="56" height="56"/>
        </g>
        <g transform="matrix(1,0,0,1,840,584)">
            <rect x="4" y="4" width="56" height="56"/>
        </g>
        <g transform="matrix(1,0,0,1,968,584)">
            <rect x="4" y="4" width="56" height="56"/>
        </g>
        <g transform="matrix(1,0,0,1,1096,584)">
            <rect x="4" y="4" width="56" height="56"/>
        </g>
        <g transform="matrix(1,0,0,1,1224,584)">
            <rect x="4" y="4" width="56" height="56"/>
        </g>
        <g transform="matrix(1,0,0,1,776,648)">
            <rect x="4" y="4" width="56" height="56"/>
        </g>
        <g transform="matrix(1,0,0,1,840,648)">
            <rect x="4" y="4" width="56" height="56"/>
        </g>
        <g transform="matrix(1,0,0,1,904,648)">
            <rect x="4" y="4" width="56" height="56"/>
        </g>
        <g transform="matrix(1,0,0,1,1032,648)">
            <rect x="4" y="4" width="56" height="56"/>
        </g>
        <g transform="matrix(1,0,0,1,1224,648)">
            <rect x="4" y="4" width="56" height="56"/>
        </g>
        <g transform="matrix(1,0,0,1,200,712)">
            <rect x="4" y="4" width="56" height="56"/>
        </g>
        <g transform="matrix(1,0,0,1,264,712)">
            <rect x="4" y="4" width="56" height="56"/>
        </g>
        <g transform="matrix(1,0,0,1,328,712)">
            <rect x="4" y="4" width="56" height="56"/>
        </g>
        <g transform="matrix(1,0,0,1,392,712)">
            <rect x="4" y="4" width="56" height="56"/>
        </g>
        <g transform="matrix(1,0,0,1,456,712)">
            <rect x="4" y="4" width="56" height="56"/>
        </g>
        <g transform="matrix(1,0,0,1,584,712)">
            <rect x="4" y="4" width="56" height="56"/>
        </g>
        <g transform="matrix(1,0,0,1,648,712)">
            <rect x="4" y="4" width="56" height="56"/>
        </g>
        <g transform="matrix(1,0,0,1,712,712)">
            <rect x="4" y="4" width="56" height="56"/>
        </g>
        <g transform="matrix(1,0,0,1,776,712)">
            <rect x="4" y="4" width="56" height="56"/>
        </g>
        <g transform="matrix(1,0,0,1,904,712)">
            <rect x="4" y="4" width="56" height="56"/>
        </g>
        <g transform="matrix(1,0,0,1,968,712)">
            <rect x="4" y="4" width="56" height="56"/>
        </g>
        <g transform="matrix(1,0,0,1,1096,712)">
            <rect x="4" y="4" width="56" height="56"/>
        </g>
        <g transform="matrix(1,0,0,1,1160,712)">
            <rect x="4" y="4" width="56" height="56"/>
        </g>
        <g transform="matrix(1,0,0,1,1288,712)">
            <rect x="4" y="4" width="56" height="56"/>
        </g>
        <g transform="matrix(1,0,0,1,1416,712)">
            <rect x="4" y="4" width="56" height="56"/>
        </g>
        <g transform="matrix(1,0,0,1,1544,712)">
            <rect x="4" y="4" width="56" height="56"/>
        </g>
        <g transform="matrix(1,0,0,1,1672,712)">
            <rect x="4" y="4" width="56" height="56"/>
        </g>
        <g transform="matrix(1,0,0,1,264,776)">
            <rect x="4" y="4" width="56" height="56"/>
        </g>
        <g transform="matrix(1,0,0,1,456,776)">
            <rect x="4" y="4" width="56" height="56"/>
        </g>
        <g transform="matrix(1,0,0,1,520,776)">
            <rect x="4" y="4" width="56" height="56"/>
        </g>
        <g transform="matrix(1,0,0,1,648,776)">
            <rect x="4" y="4" width="56" height="56"/>
        </g>
        <g transform="matrix(1,0,0,1,712,776)">
            <rect x="4" y="4" width="56" height="56"/>
        </g>
        <g transform="matrix(1,0,0,1,840,776)">
            <rect x="4" y="4" width="56" height="56"/>
        </g>
        <g transform="matrix(1,0,0,1,968,776)">
            <rect x="4" y="4" width="56" height="56"/>
        </g>
        <g transform="matrix(1,0,0,1,1096,776)">
            <rect x="4" y="4" width="56" height="56"/>
        </g>
        <g transform="matrix(1,0,0,1,1224,776)">
            <rect x="4" y="4" width="56" height="56"/>
        </g>
        <g transform="matrix(1,0,0,1,1416,776)">
            <rect x="4" y="4" width="56" height="56"/>
        </g>
        <g transform="matrix(1,0,0,1,1736,776)">
            <rect x="4" y="4" width="56" height="56"/>
        </g>
        <g transform="matrix(1,0,0,1,200,840)">
            <rect x="4" y="4" width="56" height="56"/>
        </g>
        <g transform="matrix(1,0,0,1,392,840)">
            <rect x="4" y="4" width="56" height="56"/>
        </g>
        <g transform="matrix(1,0,0,1,584,840)">
            <rect x="4" y="4" width="56" height="56"/>
        </g>
        <g transform="matrix(1,0,0,1,840,840)">
            <rect x="4" y="4" width="56" height="56"/>
        </g>
        <g transform="matrix(1,0,0,1,968,840)">
            <rect x="4" y="4" width="56" height="56"/>
        </g>
        <g transform="matrix(1,0,0,1,1032,840)">
            <rect x="4" y="4" width="56" height="56"/>
        </g>
        <g transform="matrix(1,0,0,1,1288,840)">
            <rect x="4" y="4" width="56" height="56"/>
        </g>
        <g transform="matrix(1,0,0,1,1352,840)">
            <rect x="4" y="4" width="56" height="56"/>
        </g>
        <g transform="matrix(1,0,0,1,1480,840)">
            <rect x="4" y="4" width="56" height="56"/>
        </g>
        <g transform="matrix(1,0,0,1,1608,840)">
            <rect x="4" y="4" width="56" height="56"/>
        </g>
        <g transform="matrix(1,0,0,1,264,904)">
            <rect x="4" y="4" width="56" height="56"/>
        </g>
        <g transform="matrix(1,0,0,1,392,904)">
            <rect x="4" y="4" width="56" height="56"/>
        </g>
        <g transform="matrix(1,0,0,1,456,904)">
            <rect x="4" y="4" width="56" height="56"/>
        </g>
        <g transform="matrix(1,0,0,1,712,904)">
            <rect x="4" y="4" width="56" height="56"/>
        </g>
        <g transform="matrix(1,0,0,1,968,904)">
            <rect x="4" y="4" width="56" height="56"/>
        </g>
        <g transform="matrix(1,0,0,1,1032,904)">
            <rect x="4" y="4" width="56" height="56"/>
        </g>
        <g transform="matrix(1,0,0,1,1224,904)">
            <rect x="4" y="4" width="56" height="56"/>
        </g>
        <g transform="matrix(1,0,0,1,1416,904)">
            <rect x="4" y="4" width="56" height="56"/>
        </g>
        <g transform="matrix(1,0,0,1,200,968)">
            <rect x="4" y="4" width="56" height="56"/>
        </g>
        <g transform="matrix(1,0,0,1,520,968)">
            <rect x="4" y="4" width="56" height="56"/>
        </g>
        <g transform="matrix(1,0,0,1,584,968)">
            <rect x="4" y="4" width="56" height="56"/>
        </g>
        <g transform="matrix(1,0,0,1,648,968)">
            <rect x="4" y="4" width="56" height="56"/>
        </g>
        <g transform="matrix(1,0,0,1,712,968)">
            <rect x="4" y="4" width="56" height="56"/>
        </g>
        <g transform="matrix(1,0,0,1,776,968)">
            <rect x="4" y="4" width="56" height="56"/>
        </g>
        <g transform="matrix(1,0,0,1,840,968)">
            <rect x="4" y="4" width="56" height="56"/>
        </g>
        <g transform="matrix(1,0,0,1,968,968)">
            <rect x="4" y="4" width="56" height="56"/>
        </g>
        <g transform="matrix(1,0,0,1,1032,968)">
            <rect x="4" y="4" width="56" height="56"/>
        </g>
        <g transform="matrix(1,0,0,1,1096,968)">
            <rect x="4" y="4" width="56" height="56"/>
        </g>
        <g transform="matrix(1,0,0,1,1160,968)">
            <rect x="4" y="4" width="56" height="56"/>
        </g>
        <g transform="matrix(1,0,0,1,1224,968)">
            <rect x="4" y="4" width="56" height="56"/>
        </g>
        <g transform="matrix(1,0,0,1,1288,968)">
            <rect x="4" y="4" width="56" height="56"/>
        </g>
        <g transform="matrix(1,0,0,1,1416,968)">
            <rect x="4" y="4" width="56" height="56"/>
        </g>
        <g transform="matrix(1,0,0,1,1480,968)">
            <rect x="4" y="4" width="56" height="56"/>
        </g>
        <g transform="matrix(1,0,0,1,1544,968)">
            <rect x="4" y="4" width="56" height="56"/>
        </g>
        <g transform="matrix(1,0,0,1,1672,968)">
            <rect x="4" y="4" width="56" height="56"/>
        </g>
        <g transform="matrix(1,0,0,1,1736,968)">
            <rect x="4" y="4" width="56" height="56"/>
        </g>
        <g transform="matrix(1,0,0,1,200,1032)">
            <rect x="4" y="4" width="56" height="56"/>
        </g>
        <g transform="matrix(1,0,0,1,328,1032)">
            <rect x="4" y="4" width="56" height="56"/>
        </g>
        <g transform="matrix(1,0,0,1,392,1032)">
            <rect x="4" y="4" width="56" height="56"/>
        </g>
        <g transform="matrix(1,0,0,1,520,1032)">
            <rect x="4" y="4" width="56" height="56"/>
        </g>
        <g transform="matrix(1,0,0,1,904,1032)">
            <rect x="4" y="4" width="56" height="56"/>
        </g>
        <g transform="matrix(1,0,0,1,968,1032)">
            <rect x="4" y="4" width="56" height="56"/>
        </g>
        <g transform="matrix(1,0,0,1,1160,1032)">
            <rect x="4" y="4" width="56" height="56"/>
        </g>
        <g transform="matrix(1,0,0,1,1352,1032)">
            <rect x="4" y="4" width="56" height="56"/>
        </g>
        <g transform="matrix(1,0,0,1,1416,1032)">
            <rect x="4" y="4" width="56" height="56"/>
        </g>
        <g transform="matrix(1,0,0,1,1480,1032)">
            <rect x="4" y="4" width="56" height="56"/>
        </g>
        <g transform="matrix(1,0,0,1,1672,1032)">
            <rect x="4" y="4" width="56" height="56"/>
        </g>
        <g transform="matrix(1,0,0,1,1736,1032)">
            <rect x="4" y="4" width="56" height="56"/>
        </g>
        <g transform="matrix(1,0,0,1,200,1096)">
            <rect x="4" y="4" width="56" height="56"/>
        </g>
        <g transform="matrix(1,0,0,1,328,1096)">
            <rect x="4" y="4" width="56" height="56"/>
        </g>
        <g transform="matrix(1,0,0,1,456,1096)">
            <rect x="4" y="4" width="56" height="56"/>
        </g>
        <g transform="matrix(1,0,0,1,584,1096)">
            <rect x="4" y="4" width="56" height="56"/>
        </g>
        <g transform="matrix(1,0,0,1,648,1096)">
            <rect x="4" y="4" width="56" height="56"/>
        </g>
        <g transform="matrix(1,0,0,1,840,1096)">
            <rect x="4" y="4" width="56" height="56"/>
        </g>
        <g transform="matrix(1,0,0,1,1032,1096)">
            <rect x="4" y="4" width="56" height="56"/>
        </g>
        <g transform="matrix(1,0,0,1,1096,1096)">
            <rect x="4" y="4" width="56" height="56"/>
        </g>
        <g transform="matrix(1,0,0,1,1160,1096)">
            <rect x="4" y="4" width="56" height="56"/>
        </g>
        <g transform="matrix(1,0,0,1,1288,1096)">
            <rect x="4" y="4" width="56" height="56"/>
        </g>
        <g transform="matrix(1,0,0,1,1352,1096)">
            <rect x="4" y="4" width="56" height="56"/>
        </g>
        <g transform="matrix(1,0,0,1,1480,1096)">
            <rect x="4" y="4" width="56" height="56"/>
        </g>
        <g transform="matrix(1,0,0,1,1608,1096)">
            <rect x="4" y="4" width="56" height="56"/>
        </g>
        <g transform="matrix(1,0,0,1,200,1160)">
            <rect x="4" y="4" width="56" height="56"/>
        </g>
        <g transform="matrix(1,0,0,1,328,1160)">
            <rect x="4" y="4" width="56" height="56"/>
        </g>
        <g transform="matrix(1,0,0,1,456,1160)">
            <rect x="4" y="4" width="56" height="56"/>
        </g>
        <g transform="matrix(1,0,0,1,648,1160)">
            <rect x="4" y="4" width="56" height="56"/>
        </g>
        <g transform="matrix(1,0,0,1,712,1160)">
            <rect x="4" y="4" width="56" height="56"/>
        </g>
        <g transform="matrix(1,0,0,1,776,1160)">
            <rect x="4" y="4" width="56" height="56"/>
        </g>
        <g transform="matrix(1,0,0,1,904,1160)">
            <rect x="4" y="4" width="56" height="56"/>
        </g>
        <g transform="matrix(1,0,0,1,1224,1160)">
            <rect x="4" y="4" width="56" height="56"/>
        </g>
        <g transform="matrix(1,0,0,1,1672,1160)">
            <rect x="4" y="4" width="56" height="56"/>
        </g>
        <g transform="matrix(1,0,0,1,1736,1160)">
            <rect x="4" y="4" width="56" height="56"/>
        </g>
        <g transform="matrix(1,0,0,1,200,1224)">
            <rect x="4" y="4" width="56" height="56"/>
        </g>
        <g transform="matrix(1,0,0,1,328,1224)">
            <rect x="4" y="4" width="56" height="56"/>
        </g>
        <g transform="matrix(1,0,0,1,392,1224)">
            <rect x="4" y="4" width="56" height="56"/>
        </g>
        <g transform="matrix(1,0,0,1,520,1224)">
            <rect x="4" y="4" width="56" height="56"/>
        </g>
        <g transform="matrix(1,0,0,1,584,1224)">
            <rect x="4" y="4" width="56" height="56"/>
        </g>
        <g transform="matrix(1,0,0,1,712,1224)">
            <rect x="4" y="4" width="56" height="56"/>
        </g>
        <g transform="matrix(1,0,0,1,840,1224)">
            <rect x="4" y="4" width="56" height="56"/>
        </g>
        <g transform="matrix(1,0,0,1,1032,1224)">
            <rect x="4" y="4" width="56" height="56"/>
        </g>
        <g transform="matrix(1,0,0,1,1160,1224)">
            <rect x="4" y="4" width="56" height="56"/>
        </g>
        <g transform="matrix(1,0,0,1,1224,1224)">
            <rect x="4" y="4" width="56" height="56"/>
        </g>
        <g transform="matrix(1,0,0,1,1288,1224)">
            <rect x="4" y="4" width="56" height="56"/>
        </g>
        <g transform="matrix(1,0,0,1,1352,1224)">
            <rect x="4" y="4" width="56" height="56"/>
        </g>
        <g transform="matrix(1,0,0,1,1416,1224)">
            <rect x="4" y="4" width="56" height="56"/>
        </g>
        <g transform="matrix(1,0,0,1,1480,1224)">
            <rect x="4" y="4" width="56" height="56"/>
        </g>
        <g transform="matrix(1,0,0,1,1544,1224)">
            <rect x="4" y="4" width="56" height="56"/>
        </g>
        <g transform="matrix(1,0,0,1,1736,1224)">
            <rect x="4" y="4" width="56" height="56"/>
        </g>
        <g transform="matrix(1,0,0,1,712,1288)">
            <rect x="4" y="4" width="56" height="56"/>
        </g>
        <g transform="matrix(1,0,0,1,840,1288)">
            <rect x="4" y="4" width="56" height="56"/>
        </g>
        <g transform="matrix(1,0,0,1,968,1288)">
            <rect x="4" y="4" width="56" height="56"/>
        </g>
        <g transform="matrix(1,0,0,1,1096,1288)">
            <rect x="4" y="4" width="56" height="56"/>
        </g>
        <g transform="matrix(1,0,0,1,1224,1288)">
            <rect x="4" y="4" width="56" height="56"/>
        </g>
        <g transform="matrix(1,0,0,1,1480,1288)">
            <rect x="4" y="4" width="56" height="56"/>
        </g>
        <g transform="matrix(1,0,0,1,1736,1288)">
            <rect x="4" y="4" width="56" height="56"/>
        </g>
        <g transform="matrix(1,0,0,1,712,1352)">
            <rect x="4" y="4" width="56" height="56"/>
        </g>
        <g transform="matrix(1,0,0,1,776,1352)">
            <rect x="4" y="4" width="56" height="56"/>
        </g>
        <g transform="matrix(1,0,0,1,1032,1352)">
            <rect x="4" y="4" width="56" height="56"/>
        </g>
        <g transform="matrix(1,0,0,1,1096,1352)">
            <rect x="4" y="4" width="56" height="56"/>
        </g>
        <g transform="matrix(1,0,0,1,1160,1352)">
            <rect x="4" y="4" width="56" height="56"/>
        </g>
        <g transform="matrix(1,0,0,1,1224,1352)">
            <rect x="4" y="4" width="56" height="56"/>
        </g>
        <g transform="matrix(1,0,0,1,1352,1352)">
            <rect x="4" y="4" width="56" height="56"/>
        </g>
        <g transform="matrix(1,0,0,1,1480,1352)">
            <rect x="4" y="4" width="56" height="56"/>
        </g>
        <g transform="matrix(1,0,0,1,1608,1352)">
            <rect x="4" y="4" width="56" height="56"/>
        </g>
        <g transform="matrix(1,0,0,1,1672,1352)">
            <rect x="4" y="4" width="56" height="56"/>
        </g>
        <g transform="matrix(1,0,0,1,1736,1352)">
            <rect x="4" y="4" width="56" height="56"/>
        </g>
        <g transform="matrix(1,0,0,1,904,1416)">
            <rect x="4" y="4" width="56" height="56"/>
        </g>
        <g transform="matrix(1,0,0,1,1032,1416)">
            <rect x="4" y="4" width="56" height="56"/>
        </g>
        <g transform="matrix(1,0,0,1,1160,1416)">
            <rect x="4" y="4" width="56" height="56"/>
        </g>
        <g transform="matrix(1,0,0,1,1224,1416)">
            <rect x="4" y="4" width="56" height="56"/>
        </g>
        <g transform="matrix(1,0,0,1,1480,1416)">
            <rect x="4" y="4" width="56" height="56"/>
        </g>
        <g transform="matrix(1,0,0,1,1544,1416)">
            <rect x="4" y="4" width="56" height="56"/>
        </g>
        <g transform="matrix(1,0,0,1,712,1480)">
            <rect x="4" y="4" width="56" height="56"/>
        </g>
        <g transform="matrix(1,0,0,1,1032,1480)">
            <rect x="4" y="4" width="56" height="56"/>
        </g>
        <g transform="matrix(1,0,0,1,1096,1480)">
            <rect x="4" y="4" width="56" height="56"/>
        </g>
        <g transform="matrix(1,0,0,1,1224,1480)">
            <rect x="4" y="4" width="56" height="56"/>
        </g>
        <g transform="matrix(1,0,0,1,1288,1480)">
            <rect x="4" y="4" width="56" height="56"/>
        </g>
        <g transform="matrix(1,0,0,1,1352,1480)">
            <rect x="4" y="4" width="56" height="56"/>
        </g>
        <g transform="matrix(1,0,0,1,1416,1480)">
            <rect x="4" y="4" width="56" height="56"/>
        </g>
        <g transform="matrix(1,0,0,1,1480,1480)">
            <rect x="4" y="4" width="56" height="56"/>
        </g>
        <g transform="matrix(1,0,0,1,1544,1480)">
            <rect x="4" y="4" width="56" height="56"/>
        </g>
        <g transform="matrix(1,0,0,1,712,1544)">
            <rect x="4" y="4" width="56" height="56"/>
        </g>
        <g transform="matrix(1,0,0,1,776,1544)">
            <rect x="4" y="4" width="56" height="56"/>
        </g>
        <g transform="matrix(1,0,0,1,840,1544)">
            <rect x="4" y="4" width="56" height="56"/>
        </g>
        <g transform="matrix(1,0,0,1,904,1544)">
            <rect x="4" y="4" width="56" height="56"/>
        </g>
        <g transform="matrix(1,0,0,1,1096,1544)">
            <rect x="4" y="4" width="56" height="56"/>
        </g>
        <g transform="matrix(1,0,0,1,1160,1544)">
            <rect x="4" y="4" width="56" height="56"/>
        </g>
        <g transform="matrix(1,0,0,1,1224,1544)">
            <rect x="4" y="4" width="56" height="56"/>
        </g>
        <g transform="matrix(1,0,0,1,1288,1544)">
            <rect x="4" y="4" width="56" height="56"/>
        </g>
        <g transform="matrix(1,0,0,1,1416,1544)">
            <rect x="4" y="4" width="56" height="56"/>
        </g>
        <g transform="matrix(1,0,0,1,1480,1544)">
            <rect x="4" y="4" width="56" height="56"/>
        </g>
        <g transform="matrix(1,0,0,1,1544,1544)">
            <rect x="4" y="4" width="56" height="56"/>
        </g>
        <g transform="matrix(1,0,0,1,1672,1544)">
            <rect x="4" y="4" width="56" height="56"/>
        </g>
        <g transform="matrix(1,0,0,1,1736,1544)">
            <rect x="4" y="4" width="56" height="56"/>
        </g>
        <g transform="matrix(1,0,0,1,712,1608)">
            <rect x="4" y="4" width="56" height="56"/>
        </g>
        <g transform="matrix(1,0,0,1,776,1608)">
            <rect x="4" y="4" width="56" height="56"/>
        </g>
        <g transform="matrix(1,0,0,1,904,1608)">
            <rect x="4" y="4" width="56" height="56"/>
        </g>
        <g transform="matrix(1,0,0,1,968,1608)">
            <rect x="4" y="4" width="56" height="56"/>
        </g>
        <g transform="matrix(1,0,0,1,1032,1608)">
            <rect x="4" y="4" width="56" height="56"/>
        </g>
        <g transform="matrix(1,0,0,1,1096,1608)">
            <rect x="4" y="4" width="56" height="56"/>
        </g>
        <g transform="matrix(1,0,0,1,1288,1608)">
            <rect x="4" y="4" width="56" height="56"/>
        </g>
        <g transform="matrix(1,0,0,1,1416,1608)">
            <rect x="4" y="4" width="56" height="56"/>
        </g>
        <g transform="matrix(1,0,0,1,1480,1608)">
            <rect x="4" y="4" width="56" height="56"/>
        </g>
        <g transform="matrix(1,0,0,1,1608,1608)">
            <rect x="4" y="4" width="56" height="56"/>
        </g>
        <g transform="matrix(1,0,0,1,1736,1608)">
            <rect x="4" y="4" width="56" height="56"/>
        </g>
        <g transform="matrix(1,0,0,1,712,1672)">
            <rect x="4" y="4" width="56" height="56"/>
        </g>
        <g transform="matrix(1,0,0,1,904,1672)">
            <rect x="4" y="4" width="56" height="56"/>
        </g>
        <g transform="matrix(1,0,0,1,968,1672)">
            <rect x="4" y="4" width="56" height="56"/>
        </g>
        <g transform="matrix(1,0,0,1,1032,1672)">
            <rect x="4" y="4" width="56" height="56"/>
        </g>
        <g transform="matrix(1,0,0,1,1160,1672)">
            <rect x="4" y="4" width="56" height="56"/>
        </g>
        <g transform="matrix(1,0,0,1,1224,1672)">
            <rect x="4" y="4" width="56" height="56"/>
        </g>
        <g transform="matrix(1,0,0,1,1288,1672)">
            <rect x="4" y="4" width="56" height="56"/>
        </g>
        <g transform="matrix(1,0,0,1,1352,1672)">
            <rect x="4" y="4" width="56" height="56"/>
        </g>
        <g transform="matrix(1,0,0,1,1480,1672)">
            <rect x="4" y="4" width="56" height="56"/>
        </g>
        <g transform="matrix(1,0,0,1,1544,1672)">
            <rect x="4" y="4" width="56" height="56"/>
        </g>
        <g transform="matrix(1,0,0,1,1608,1672)">
            <rect x="4" y="4" width="56" height="56"/>
        </g>
        <g transform="matrix(1,0,0,1,1672,1672)">
            <rect x="4" y="4" width="56" height="56"/>
        </g>
        <g transform="matrix(1,0,0,1,712,1736)">
            <rect x="4" y="4" width="56" height="56"/>
        </g>
        <g transform="matrix(1,0,0,1,1096,1736)">
            <rect x="4" y="4" width="56" height="56"/>
        </g>
        <g transform="matrix(1,0,0,1,1160,1736)">
            <rect x="4" y="4" width="56" height="56"/>
        </g>
        <g transform="matrix(1,0,0,1,1288,1736)">
            <rect x="4" y="4" width="56" height="56"/>
        </g>
        <g transform="matrix(1,0,0,1,1544,1736)">
            <rect x="4" y="4" width="56" height="56"/>
        </g>
        <g transform="matrix(1,0,0,1,1608,1736)">
            <rect x="4" y="4" width="56" height="56"/>
        </g>
        <g transform="matrix(1,0,0,1,1672,1736)">
            <rect x="4" y="4" width="56" height="56"/>
        </g>
        <g transform="matrix(1,0,0,1,1736,1736)">
            <rect x="4" y="4" width="56" height="56"/>
        </g>
        <g id="Ebene_1" transform="matrix(1,0,0,1,200,200)">
            <path d="M13.568,-0.064C6.08,-0.064 -0.064,6.08 -0.064,13.568L-0.064,434.432C-0.064,441.92 6.016,448.064 13.568,448.064L434.432,448.064C441.92,448.064 448.064,441.984 448.064,434.432L448.064,13.568C448.064,6.08 441.984,-0.064 434.432,-0.064L13.568,-0.064ZM384,71.808L384,376.192C384,380.544 380.48,384 376.192,384L71.808,384C67.456,384 64,380.48 64,376.192L64,71.808C64,67.456 67.52,64 71.808,64L376.192,64C380.544,64 384,67.52 384,71.808Z" style="fill-rule:nonzero;"/>
        </g>
        <g id="Ebene_11" serif:id="Ebene_1" transform="matrix(1,0,0,1,200,200)">
            <path d="M320,306.432L320,141.568C320,134.08 313.92,127.936 306.368,127.936L141.568,127.936C134.08,127.936 127.936,134.016 127.936,141.568L127.936,306.432C127.936,313.92 134.016,320.064 141.568,320.064L306.368,320.064C313.856,320.064 320,313.984 320,306.432Z" style="fill-rule:nonzero;"/>
        </g>
        <g id="Ebene_12" serif:id="Ebene_1" transform="matrix(1,0,0,1,1352,200)">
            <path d="M13.568,-0.064C6.08,-0.064 -0.064,6.08 -0.064,13.568L-0.064,434.432C-0.064,441.92 6.016,448.064 13.568,448.064L434.432,448.064C441.92,448.064 448.064,441.984 448.064,434.432L448.064,13.568C448.064,6.08 441.984,-0.064 434.432,-0.064L13.568,-0.064ZM384,71.808L384,376.192C384,380.544 380.48,384 376.192,384L71.808,384C67.456,384 64,380.48 64,376.192L64,71.808C64,67.456 67.52,64 71.808,64L376.192,64C380.544,64 384,67.52 384,71.808Z" style="fill-rule:nonzero;"/>
        </g>
        <g id="Ebene_13" serif:id="Ebene_1" transform="matrix(1,0,0,1,1352,200)">
            <path d="M320,306.432L320,141.568C320,134.08 313.92,127.936 306.368,127.936L141.568,127.936C134.08,127.936 127.936,134.016 127.936,141.568L127.936,306.432C127.936,313.92 134.016,320.064 141.568,320.064L306.368,320.064C313.856,320.064 320,313.984 320,306.432Z" style="fill-rule:nonzero;"/>
        </g>
        <g id="Ebene_14" serif:id="Ebene_1" transform="matrix(1,0,0,1,200,1352)">
            <path d="M13.568,-0.064C6.08,-0.064 -0.064,6.08 -0.064,13.568L-0.064,434.432C-0.064,441.92 6.016,448.064 13.568,448.064L434.432,448.064C441.92,448.064 448.064,441.984 448.064,434.432L448.064,13.568C448.064,6.08 441.984,-0.064 434.432,-0.064L13.568,-0.064ZM384,71.808L384,376.192C384,380.544 380.48,384 376.192,384L71.808,384C67.456,384 64,380.48 64,376.192L64,71.808C64,67.456 67.52,64 71.808,64L376.192,64C380.544,64 384,67.52 384,71.808Z" style="fill-rule:nonzero;"/>
        </g>
        <g id="Ebene_15" serif:id="Ebene_1" transform="matrix(1,0,0,1,200,1352)">
            <path d="M320,306.432L320,141.568C320,134.08 313.92,127.936 306.368,127.936L141.568,127.936C134.08,127.936 127.936,134.016 127.936,141.568L127.936,306.432C127.936,313.92 134.016,320.064 141.568,320.064L306.368,320.064C313.856,320.064 320,313.984 320,306.432Z" style="fill-rule:nonzero;"/>
        </g>
    </g>
    <g id="FrameBody" transform="matrix(1.5625,0,0,1.5625,0,0)">
        <path d="M8.768,221.824L169.856,221.824C174.72,221.824 178.624,217.856 178.624,213.056L178.624,8.768C178.624,3.904 174.656,0 169.856,0L8.832,0C3.968,0 0.064,3.968 0,8.768L0,213.056C0,217.92 3.968,221.824 8.768,221.824ZM6.784,11.456C6.784,8.832 8.896,6.72 11.52,6.72L167.168,6.72C169.792,6.72 171.904,8.832 171.904,11.456L171.904,167.168C171.904,169.792 169.792,171.904 167.168,171.904L11.52,171.904C8.896,171.904 6.784,169.792 6.784,167.168L6.784,11.456Z" style="fill-rule:nonzero;"/>
    </g>
    <g transform="matrix(0.990394,0,0,0.990394,10.7988,269.03)">
        <g id="TextArea">
            <g>
                <path d="M14.615,48.076L11.676,48.076L11.676,24.724L24.725,24.724L24.725,27.312L14.615,27.312L14.615,35.586L24.102,35.586L24.102,38.157L14.615,38.157L14.615,48.076ZM28.655,48.076L28.655,24.724L31.594,24.724L31.594,45.457L41.8,45.457L41.8,48.076L28.655,48.076ZM66.174,36.368C66.174,40.106 65.229,43.045 63.339,45.185C61.449,47.325 58.805,48.396 55.409,48.396C51.969,48.396 49.31,47.344 47.43,45.241C45.551,43.138 44.611,40.17 44.611,36.336C44.611,32.535 45.546,29.588 47.414,27.496C49.283,25.403 51.958,24.357 55.44,24.357C58.827,24.357 61.462,25.419 63.347,27.544C65.232,29.668 66.174,32.609 66.174,36.368ZM47.71,36.368C47.71,39.456 48.365,41.81 49.674,43.428C50.984,45.047 52.896,45.856 55.409,45.856C57.911,45.856 59.812,45.057 61.111,43.46C62.41,41.863 63.059,39.499 63.059,36.368C63.059,33.248 62.415,30.898 61.127,29.316C59.838,27.735 57.943,26.945 55.44,26.945C52.906,26.945 50.984,27.746 49.674,29.348C48.365,30.951 47.71,33.291 47.71,36.368ZM74.272,35.937L77.77,35.937C79.665,35.937 81.05,35.564 81.923,34.819C82.796,34.074 83.233,32.966 83.233,31.497C83.233,30.027 82.791,28.954 81.907,28.278C81.023,27.602 79.591,27.264 77.61,27.264L74.272,27.264L74.272,35.937ZM74.272,38.429L74.272,48.076L71.333,48.076L71.333,24.724L77.77,24.724C80.666,24.724 82.809,25.275 84.199,26.378C85.589,27.48 86.283,29.138 86.283,31.353C86.283,34.452 84.723,36.539 81.603,37.614L88.008,48.076L84.574,48.076L78.92,38.429L74.272,38.429ZM98.247,48.076L89.813,48.076L89.813,46.383L92.561,45.76L92.561,27.072L89.813,26.417L89.813,24.724L98.247,24.724L98.247,26.417L95.499,27.072L95.499,45.76L98.247,46.383L98.247,48.076ZM117.414,48.076L114.603,40.841L105.338,40.841L102.559,48.076L99.588,48.076L108.709,24.629L111.36,24.629L120.464,48.076L117.414,48.076ZM113.724,38.237L111.105,31.161L109.986,27.663C109.667,28.941 109.332,30.107 108.98,31.161L106.329,38.237L113.724,38.237ZM142.187,48.076L138.753,48.076L126.246,28.686L126.119,28.686L126.199,29.979C126.326,31.917 126.39,33.6 126.39,35.027L126.39,48.076L123.675,48.076L123.675,24.724L127.077,24.724L127.796,25.858L135.463,37.71L139.536,44.051L139.663,44.051C139.642,43.796 139.599,42.882 139.536,41.312C139.472,39.741 139.44,38.604 139.44,37.902L139.44,24.724L142.187,24.724L142.187,48.076ZM164.421,48.076L161.466,48.076L161.466,27.312L154.166,27.312L154.166,24.724L171.672,24.724L171.672,27.312L164.421,27.312L164.421,48.076ZM193.075,48.076L190.136,48.076L190.136,37.183L178.157,37.183L178.157,48.076L175.218,48.076L175.218,24.724L178.157,24.724L178.157,34.595L190.136,34.595L190.136,24.724L193.075,24.724L193.075,48.076ZM219.845,36.368C219.845,40.106 218.9,43.045 217.01,45.185C215.12,47.325 212.477,48.396 209.08,48.396C205.64,48.396 202.981,47.344 201.101,45.241C199.222,43.138 198.282,40.17 198.282,36.336C198.282,32.535 199.217,29.588 201.086,27.496C202.954,25.403 205.63,24.357 209.112,24.357C212.498,24.357 215.133,25.419 217.018,27.544C218.903,29.668 219.845,32.609 219.845,36.368ZM201.381,36.368C201.381,39.456 202.036,41.81 203.346,43.428C204.655,45.047 206.567,45.856 209.08,45.856C211.582,45.856 213.483,45.057 214.782,43.46C216.081,41.863 216.731,39.499 216.731,36.368C216.731,33.248 216.086,30.898 214.798,29.316C213.509,27.735 211.614,26.945 209.112,26.945C206.577,26.945 204.655,27.746 203.346,29.348C202.036,30.951 201.381,33.291 201.381,36.368ZM235.307,48.076L227.608,27.599L227.48,27.599C227.64,29.303 227.72,31.406 227.72,33.909L227.72,48.076L225.004,48.076L225.004,24.724L229.349,24.724L236.552,43.859L236.68,43.859L244.012,24.724L248.324,24.724L248.324,48.076L245.417,48.076L245.417,33.717C245.417,32.12 245.492,30.091 245.641,27.631L245.513,27.631L237.718,48.076L235.307,48.076Z" style="fill:white;fill-rule:nonzero;"/>
            </g>
        </g>
    </g>
</svg>
