<?xml version="1.0" encoding="UTF-8" standalone="no"?>
<!DOCTYPE svg PUBLIC "-//W3C//DTD SVG 1.1//EN" "http://www.w3.org/Graphics/SVG/1.1/DTD/svg11.dtd">
<svg width="100%" height="100%" viewBox="0 0 100 100" version="1.1" xmlns="http://www.w3.org/2000/svg" xmlns:xlink="http://www.w3.org/1999/xlink" xml:space="preserve" xmlns:serif="http://www.serif.com/" style="fill-rule:evenodd;clip-rule:evenodd;stroke-linejoin:round;stroke-miterlimit:2;">
    <g transform="matrix(0.062495,0,0,0.062495,-12.495,-12.495)">
        <g transform="matrix(1,0,0,1,840,200)">
            <rect x="4" y="4" width="56" height="56"/>
        </g>
        <g transform="matrix(1,0,0,1,968,200)">
            <rect x="4" y="4" width="56" height="56"/>
        </g>
        <g transform="matrix(1,0,0,1,1160,200)">
            <rect x="4" y="4" width="56" height="56"/>
        </g>
        <g transform="matrix(1,0,0,1,712,264)">
            <rect x="4" y="4" width="56" height="56"/>
        </g>
        <g transform="matrix(1,0,0,1,840,264)">
            <rect x="4" y="4" width="56" height="56"/>
        </g>
        <g transform="matrix(1,0,0,1,1032,264)">
            <rect x="4" y="4" width="56" height="56"/>
        </g>
        <g transform="matrix(1,0,0,1,1096,264)">
            <rect x="4" y="4" width="56" height="56"/>
        </g>
        <g transform="matrix(1,0,0,1,968,328)">
            <rect x="4" y="4" width="56" height="56"/>
        </g>
        <g transform="matrix(1,0,0,1,1032,328)">
            <rect x="4" y="4" width="56" height="56"/>
        </g>
        <g transform="matrix(1,0,0,1,1224,328)">
            <rect x="4" y="4" width="56" height="56"/>
        </g>
        <g transform="matrix(1,0,0,1,712,392)">
            <rect x="4" y="4" width="56" height="56"/>
        </g>
        <g transform="matrix(1,0,0,1,776,392)">
            <rect x="4" y="4" width="56" height="56"/>
        </g>
        <g transform="matrix(1,0,0,1,840,392)">
            <rect x="4" y="4" width="56" height="56"/>
        </g>
        <g transform="matrix(1,0,0,1,968,392)">
            <rect x="4" y="4" width="56" height="56"/>
        </g>
        <g transform="matrix(1,0,0,1,1032,392)">
            <rect x="4" y="4" width="56" height="56"/>
        </g>
        <g transform="matrix(1,0,0,1,1096,392)">
            <rect x="4" y="4" width="56" height="56"/>
        </g>
        <g transform="matrix(1,0,0,1,1160,392)">
            <rect x="4" y="4" width="56" height="56"/>
        </g>
        <g transform="matrix(1,0,0,1,776,456)">
            <rect x="4" y="4" width="56" height="56"/>
        </g>
        <g transform="matrix(1,0,0,1,1096,456)">
            <rect x="4" y="4" width="56" height="56"/>
        </g>
        <g transform="matrix(1,0,0,1,1160,456)">
            <rect x="4" y="4" width="56" height="56"/>
        </g>
        <g transform="matrix(1,0,0,1,1224,456)">
            <rect x="4" y="4" width="56" height="56"/>
        </g>
        <g transform="matrix(1,0,0,1,712,520)">
            <rect x="4" y="4" width="56" height="56"/>
        </g>
        <g transform="matrix(1,0,0,1,776,520)">
            <rect x="4" y="4" width="56" height="56"/>
        </g>
        <g transform="matrix(1,0,0,1,904,520)">
            <rect x="4" y="4" width="56" height="56"/>
        </g>
        <g transform="matrix(1,0,0,1,968,520)">
            <rect x="4" y="4" width="56" height="56"/>
        </g>
        <g transform="matrix(1,0,0,1,1032,520)">
            <rect x="4" y="4" width="56" height="56"/>
        </g>
        <g transform="matrix(1,0,0,1,1096,520)">
            <rect x="4" y="4" width="56" height="56"/>
        </g>
        <g transform="matrix(1,0,0,1,1160,520)">
            <rect x="4" y="4" width="56" height="56"/>
        </g>
        <g transform="matrix(1,0,0,1,1224,520)">
            <rect x="4" y="4" width="56" height="56"/>
        </g>
        <g transform="matrix(1,0,0,1,712,584)">
            <rect x="4" y="4" width="56" height="56"/>
        </g>
        <g transform="matrix(1,0,0,1,840,584)">
            <rect x="4" y="4" width="56" height="56"/>
        </g>
        <g transform="matrix(1,0,0,1,968,584)">
            <rect x="4" y="4" width="56" height="56"/>
        </g>
        <g transform="matrix(1,0,0,1,1096,584)">
            <rect x="4" y="4" width="56" height="56"/>
        </g>
        <g transform="matrix(1,0,0,1,1224,584)">
            <rect x="4" y="4" width="56" height="56"/>
        </g>
        <g transform="matrix(1,0,0,1,776,648)">
            <rect x="4" y="4" width="56" height="56"/>
        </g>
        <g transform="matrix(1,0,0,1,840,648)">
            <rect x="4" y="4" width="56" height="56"/>
        </g>
        <g transform="matrix(1,0,0,1,904,648)">
            <rect x="4" y="4" width="56" height="56"/>
        </g>
        <g transform="matrix(1,0,0,1,1032,648)">
            <rect x="4" y="4" width="56" height="56"/>
        </g>
        <g transform="matrix(1,0,0,1,1224,648)">
            <rect x="4" y="4" width="56" height="56"/>
        </g>
        <g transform="matrix(1,0,0,1,200,712)">
            <rect x="4" y="4" width="56" height="56"/>
        </g>
        <g transform="matrix(1,0,0,1,264,712)">
            <rect x="4" y="4" width="56" height="56"/>
        </g>
        <g transform="matrix(1,0,0,1,328,712)">
            <rect x="4" y="4" width="56" height="56"/>
        </g>
        <g transform="matrix(1,0,0,1,392,712)">
            <rect x="4" y="4" width="56" height="56"/>
        </g>
        <g transform="matrix(1,0,0,1,456,712)">
            <rect x="4" y="4" width="56" height="56"/>
        </g>
        <g transform="matrix(1,0,0,1,584,712)">
            <rect x="4" y="4" width="56" height="56"/>
        </g>
        <g transform="matrix(1,0,0,1,648,712)">
            <rect x="4" y="4" width="56" height="56"/>
        </g>
        <g transform="matrix(1,0,0,1,712,712)">
            <rect x="4" y="4" width="56" height="56"/>
        </g>
        <g transform="matrix(1,0,0,1,776,712)">
            <rect x="4" y="4" width="56" height="56"/>
        </g>
        <g transform="matrix(1,0,0,1,904,712)">
            <rect x="4" y="4" width="56" height="56"/>
        </g>
        <g transform="matrix(1,0,0,1,968,712)">
            <rect x="4" y="4" width="56" height="56"/>
        </g>
        <g transform="matrix(1,0,0,1,1096,712)">
            <rect x="4" y="4" width="56" height="56"/>
        </g>
        <g transform="matrix(1,0,0,1,1160,712)">
            <rect x="4" y="4" width="56" height="56"/>
        </g>
        <g transform="matrix(1,0,0,1,1288,712)">
            <rect x="4" y="4" width="56" height="56"/>
        </g>
        <g transform="matrix(1,0,0,1,1416,712)">
            <rect x="4" y="4" width="56" height="56"/>
        </g>
        <g transform="matrix(1,0,0,1,1544,712)">
            <rect x="4" y="4" width="56" height="56"/>
        </g>
        <g transform="matrix(1,0,0,1,1672,712)">
            <rect x="4" y="4" width="56" height="56"/>
        </g>
        <g transform="matrix(1,0,0,1,264,776)">
            <rect x="4" y="4" width="56" height="56"/>
        </g>
        <g transform="matrix(1,0,0,1,456,776)">
            <rect x="4" y="4" width="56" height="56"/>
        </g>
        <g transform="matrix(1,0,0,1,520,776)">
            <rect x="4" y="4" width="56" height="56"/>
        </g>
        <g transform="matrix(1,0,0,1,648,776)">
            <rect x="4" y="4" width="56" height="56"/>
        </g>
        <g transform="matrix(1,0,0,1,712,776)">
            <rect x="4" y="4" width="56" height="56"/>
        </g>
        <g transform="matrix(1,0,0,1,840,776)">
            <rect x="4" y="4" width="56" height="56"/>
        </g>
        <g transform="matrix(1,0,0,1,968,776)">
            <rect x="4" y="4" width="56" height="56"/>
        </g>
        <g transform="matrix(1,0,0,1,1096,776)">
            <rect x="4" y="4" width="56" height="56"/>
        </g>
        <g transform="matrix(1,0,0,1,1224,776)">
            <rect x="4" y="4" width="56" height="56"/>
        </g>
        <g transform="matrix(1,0,0,1,1416,776)">
            <rect x="4" y="4" width="56" height="56"/>
        </g>
        <g transform="matrix(1,0,0,1,1736,776)">
            <rect x="4" y="4" width="56" height="56"/>
        </g>
        <g transform="matrix(1,0,0,1,200,840)">
            <rect x="4" y="4" width="56" height="56"/>
        </g>
        <g transform="matrix(1,0,0,1,392,840)">
            <rect x="4" y="4" width="56" height="56"/>
        </g>
        <g transform="matrix(1,0,0,1,584,840)">
            <rect x="4" y="4" width="56" height="56"/>
        </g>
        <g transform="matrix(1,0,0,1,840,840)">
            <rect x="4" y="4" width="56" height="56"/>
        </g>
        <g transform="matrix(1,0,0,1,968,840)">
            <rect x="4" y="4" width="56" height="56"/>
        </g>
        <g transform="matrix(1,0,0,1,1032,840)">
            <rect x="4" y="4" width="56" height="56"/>
        </g>
        <g transform="matrix(1,0,0,1,1288,840)">
            <rect x="4" y="4" width="56" height="56"/>
        </g>
        <g transform="matrix(1,0,0,1,1352,840)">
            <rect x="4" y="4" width="56" height="56"/>
        </g>
        <g transform="matrix(1,0,0,1,1480,840)">
            <rect x="4" y="4" width="56" height="56"/>
        </g>
        <g transform="matrix(1,0,0,1,1608,840)">
            <rect x="4" y="4" width="56" height="56"/>
        </g>
        <g transform="matrix(1,0,0,1,264,904)">
            <rect x="4" y="4" width="56" height="56"/>
        </g>
        <g transform="matrix(1,0,0,1,392,904)">
            <rect x="4" y="4" width="56" height="56"/>
        </g>
        <g transform="matrix(1,0,0,1,456,904)">
            <rect x="4" y="4" width="56" height="56"/>
        </g>
        <g transform="matrix(1,0,0,1,712,904)">
            <rect x="4" y="4" width="56" height="56"/>
        </g>
        <g transform="matrix(1,0,0,1,968,904)">
            <rect x="4" y="4" width="56" height="56"/>
        </g>
        <g transform="matrix(1,0,0,1,1032,904)">
            <rect x="4" y="4" width="56" height="56"/>
        </g>
        <g transform="matrix(1,0,0,1,1224,904)">
            <rect x="4" y="4" width="56" height="56"/>
        </g>
        <g transform="matrix(1,0,0,1,1416,904)">
            <rect x="4" y="4" width="56" height="56"/>
        </g>
        <g transform="matrix(1,0,0,1,200,968)">
            <rect x="4" y="4" width="56" height="56"/>
        </g>
        <g transform="matrix(1,0,0,1,520,968)">
            <rect x="4" y="4" width="56" height="56"/>
        </g>
        <g transform="matrix(1,0,0,1,584,968)">
            <rect x="4" y="4" width="56" height="56"/>
        </g>
        <g transform="matrix(1,0,0,1,648,968)">
            <rect x="4" y="4" width="56" height="56"/>
        </g>
        <g transform="matrix(1,0,0,1,712,968)">
            <rect x="4" y="4" width="56" height="56"/>
        </g>
        <g transform="matrix(1,0,0,1,776,968)">
            <rect x="4" y="4" width="56" height="56"/>
        </g>
        <g transform="matrix(1,0,0,1,840,968)">
            <rect x="4" y="4" width="56" height="56"/>
        </g>
        <g transform="matrix(1,0,0,1,968,968)">
            <rect x="4" y="4" width="56" height="56"/>
        </g>
        <g transform="matrix(1,0,0,1,1032,968)">
            <rect x="4" y="4" width="56" height="56"/>
        </g>
        <g transform="matrix(1,0,0,1,1096,968)">
            <rect x="4" y="4" width="56" height="56"/>
        </g>
        <g transform="matrix(1,0,0,1,1160,968)">
            <rect x="4" y="4" width="56" height="56"/>
        </g>
        <g transform="matrix(1,0,0,1,1224,968)">
            <rect x="4" y="4" width="56" height="56"/>
        </g>
        <g transform="matrix(1,0,0,1,1288,968)">
            <rect x="4" y="4" width="56" height="56"/>
        </g>
        <g transform="matrix(1,0,0,1,1416,968)">
            <rect x="4" y="4" width="56" height="56"/>
        </g>
        <g transform="matrix(1,0,0,1,1480,968)">
            <rect x="4" y="4" width="56" height="56"/>
        </g>
        <g transform="matrix(1,0,0,1,1544,968)">
            <rect x="4" y="4" width="56" height="56"/>
        </g>
        <g transform="matrix(1,0,0,1,1672,968)">
            <rect x="4" y="4" width="56" height="56"/>
        </g>
        <g transform="matrix(1,0,0,1,1736,968)">
            <rect x="4" y="4" width="56" height="56"/>
        </g>
        <g transform="matrix(1,0,0,1,200,1032)">
            <rect x="4" y="4" width="56" height="56"/>
        </g>
        <g transform="matrix(1,0,0,1,328,1032)">
            <rect x="4" y="4" width="56" height="56"/>
        </g>
        <g transform="matrix(1,0,0,1,392,1032)">
            <rect x="4" y="4" width="56" height="56"/>
        </g>
        <g transform="matrix(1,0,0,1,520,1032)">
            <rect x="4" y="4" width="56" height="56"/>
        </g>
        <g transform="matrix(1,0,0,1,904,1032)">
            <rect x="4" y="4" width="56" height="56"/>
        </g>
        <g transform="matrix(1,0,0,1,968,1032)">
            <rect x="4" y="4" width="56" height="56"/>
        </g>
        <g transform="matrix(1,0,0,1,1160,1032)">
            <rect x="4" y="4" width="56" height="56"/>
        </g>
        <g transform="matrix(1,0,0,1,1352,1032)">
            <rect x="4" y="4" width="56" height="56"/>
        </g>
        <g transform="matrix(1,0,0,1,1416,1032)">
            <rect x="4" y="4" width="56" height="56"/>
        </g>
        <g transform="matrix(1,0,0,1,1480,1032)">
            <rect x="4" y="4" width="56" height="56"/>
        </g>
        <g transform="matrix(1,0,0,1,1672,1032)">
            <rect x="4" y="4" width="56" height="56"/>
        </g>
        <g transform="matrix(1,0,0,1,1736,1032)">
            <rect x="4" y="4" width="56" height="56"/>
        </g>
        <g transform="matrix(1,0,0,1,200,1096)">
            <rect x="4" y="4" width="56" height="56"/>
        </g>
        <g transform="matrix(1,0,0,1,328,1096)">
            <rect x="4" y="4" width="56" height="56"/>
        </g>
        <g transform="matrix(1,0,0,1,456,1096)">
            <rect x="4" y="4" width="56" height="56"/>
        </g>
        <g transform="matrix(1,0,0,1,584,1096)">
            <rect x="4" y="4" width="56" height="56"/>
        </g>
        <g transform="matrix(1,0,0,1,648,1096)">
            <rect x="4" y="4" width="56" height="56"/>
        </g>
        <g transform="matrix(1,0,0,1,840,1096)">
            <rect x="4" y="4" width="56" height="56"/>
        </g>
        <g transform="matrix(1,0,0,1,1032,1096)">
            <rect x="4" y="4" width="56" height="56"/>
        </g>
        <g transform="matrix(1,0,0,1,1096,1096)">
            <rect x="4" y="4" width="56" height="56"/>
        </g>
        <g transform="matrix(1,0,0,1,1160,1096)">
            <rect x="4" y="4" width="56" height="56"/>
        </g>
        <g transform="matrix(1,0,0,1,1288,1096)">
            <rect x="4" y="4" width="56" height="56"/>
        </g>
        <g transform="matrix(1,0,0,1,1352,1096)">
            <rect x="4" y="4" width="56" height="56"/>
        </g>
        <g transform="matrix(1,0,0,1,1480,1096)">
            <rect x="4" y="4" width="56" height="56"/>
        </g>
        <g transform="matrix(1,0,0,1,1608,1096)">
            <rect x="4" y="4" width="56" height="56"/>
        </g>
        <g transform="matrix(1,0,0,1,200,1160)">
            <rect x="4" y="4" width="56" height="56"/>
        </g>
        <g transform="matrix(1,0,0,1,328,1160)">
            <rect x="4" y="4" width="56" height="56"/>
        </g>
        <g transform="matrix(1,0,0,1,456,1160)">
            <rect x="4" y="4" width="56" height="56"/>
        </g>
        <g transform="matrix(1,0,0,1,648,1160)">
            <rect x="4" y="4" width="56" height="56"/>
        </g>
        <g transform="matrix(1,0,0,1,712,1160)">
            <rect x="4" y="4" width="56" height="56"/>
        </g>
        <g transform="matrix(1,0,0,1,776,1160)">
            <rect x="4" y="4" width="56" height="56"/>
        </g>
        <g transform="matrix(1,0,0,1,904,1160)">
            <rect x="4" y="4" width="56" height="56"/>
        </g>
        <g transform="matrix(1,0,0,1,1224,1160)">
            <rect x="4" y="4" width="56" height="56"/>
        </g>
        <g transform="matrix(1,0,0,1,1672,1160)">
            <rect x="4" y="4" width="56" height="56"/>
        </g>
        <g transform="matrix(1,0,0,1,1736,1160)">
            <rect x="4" y="4" width="56" height="56"/>
        </g>
        <g transform="matrix(1,0,0,1,200,1224)">
            <rect x="4" y="4" width="56" height="56"/>
        </g>
        <g transform="matrix(1,0,0,1,328,1224)">
            <rect x="4" y="4" width="56" height="56"/>
        </g>
        <g transform="matrix(1,0,0,1,392,1224)">
            <rect x="4" y="4" width="56" height="56"/>
        </g>
        <g transform="matrix(1,0,0,1,520,1224)">
            <rect x="4" y="4" width="56" height="56"/>
        </g>
        <g transform="matrix(1,0,0,1,584,1224)">
            <rect x="4" y="4" width="56" height="56"/>
        </g>
        <g transform="matrix(1,0,0,1,712,1224)">
            <rect x="4" y="4" width="56" height="56"/>
        </g>
        <g transform="matrix(1,0,0,1,840,1224)">
            <rect x="4" y="4" width="56" height="56"/>
        </g>
        <g transform="matrix(1,0,0,1,1032,1224)">
            <rect x="4" y="4" width="56" height="56"/>
        </g>
        <g transform="matrix(1,0,0,1,1160,1224)">
            <rect x="4" y="4" width="56" height="56"/>
        </g>
        <g transform="matrix(1,0,0,1,1224,1224)">
            <rect x="4" y="4" width="56" height="56"/>
        </g>
        <g transform="matrix(1,0,0,1,1288,1224)">
            <rect x="4" y="4" width="56" height="56"/>
        </g>
        <g transform="matrix(1,0,0,1,1352,1224)">
            <rect x="4" y="4" width="56" height="56"/>
        </g>
        <g transform="matrix(1,0,0,1,1416,1224)">
            <rect x="4" y="4" width="56" height="56"/>
        </g>
        <g transform="matrix(1,0,0,1,1480,1224)">
            <rect x="4" y="4" width="56" height="56"/>
        </g>
        <g transform="matrix(1,0,0,1,1544,1224)">
            <rect x="4" y="4" width="56" height="56"/>
        </g>
        <g transform="matrix(1,0,0,1,1736,1224)">
            <rect x="4" y="4" width="56" height="56"/>
        </g>
        <g transform="matrix(1,0,0,1,712,1288)">
            <rect x="4" y="4" width="56" height="56"/>
        </g>
        <g transform="matrix(1,0,0,1,840,1288)">
            <rect x="4" y="4" width="56" height="56"/>
        </g>
        <g transform="matrix(1,0,0,1,968,1288)">
            <rect x="4" y="4" width="56" height="56"/>
        </g>
        <g transform="matrix(1,0,0,1,1096,1288)">
            <rect x="4" y="4" width="56" height="56"/>
        </g>
        <g transform="matrix(1,0,0,1,1224,1288)">
            <rect x="4" y="4" width="56" height="56"/>
        </g>
        <g transform="matrix(1,0,0,1,1480,1288)">
            <rect x="4" y="4" width="56" height="56"/>
        </g>
        <g transform="matrix(1,0,0,1,1736,1288)">
            <rect x="4" y="4" width="56" height="56"/>
        </g>
        <g transform="matrix(1,0,0,1,712,1352)">
            <rect x="4" y="4" width="56" height="56"/>
        </g>
        <g transform="matrix(1,0,0,1,776,1352)">
            <rect x="4" y="4" width="56" height="56"/>
        </g>
        <g transform="matrix(1,0,0,1,1032,1352)">
            <rect x="4" y="4" width="56" height="56"/>
        </g>
        <g transform="matrix(1,0,0,1,1096,1352)">
            <rect x="4" y="4" width="56" height="56"/>
        </g>
        <g transform="matrix(1,0,0,1,1160,1352)">
            <rect x="4" y="4" width="56" height="56"/>
        </g>
        <g transform="matrix(1,0,0,1,1224,1352)">
            <rect x="4" y="4" width="56" height="56"/>
        </g>
        <g transform="matrix(1,0,0,1,1352,1352)">
            <rect x="4" y="4" width="56" height="56"/>
        </g>
        <g transform="matrix(1,0,0,1,1480,1352)">
            <rect x="4" y="4" width="56" height="56"/>
        </g>
        <g transform="matrix(1,0,0,1,1608,1352)">
            <rect x="4" y="4" width="56" height="56"/>
        </g>
        <g transform="matrix(1,0,0,1,1672,1352)">
            <rect x="4" y="4" width="56" height="56"/>
        </g>
        <g transform="matrix(1,0,0,1,1736,1352)">
            <rect x="4" y="4" width="56" height="56"/>
        </g>
        <g transform="matrix(1,0,0,1,904,1416)">
            <rect x="4" y="4" width="56" height="56"/>
        </g>
        <g transform="matrix(1,0,0,1,1032,1416)">
            <rect x="4" y="4" width="56" height="56"/>
        </g>
        <g transform="matrix(1,0,0,1,1160,1416)">
            <rect x="4" y="4" width="56" height="56"/>
        </g>
        <g transform="matrix(1,0,0,1,1224,1416)">
            <rect x="4" y="4" width="56" height="56"/>
        </g>
        <g transform="matrix(1,0,0,1,1480,1416)">
            <rect x="4" y="4" width="56" height="56"/>
        </g>
        <g transform="matrix(1,0,0,1,1544,1416)">
            <rect x="4" y="4" width="56" height="56"/>
        </g>
        <g transform="matrix(1,0,0,1,712,1480)">
            <rect x="4" y="4" width="56" height="56"/>
        </g>
        <g transform="matrix(1,0,0,1,1032,1480)">
            <rect x="4" y="4" width="56" height="56"/>
        </g>
        <g transform="matrix(1,0,0,1,1096,1480)">
            <rect x="4" y="4" width="56" height="56"/>
        </g>
        <g transform="matrix(1,0,0,1,1224,1480)">
            <rect x="4" y="4" width="56" height="56"/>
        </g>
        <g transform="matrix(1,0,0,1,1288,1480)">
            <rect x="4" y="4" width="56" height="56"/>
        </g>
        <g transform="matrix(1,0,0,1,1352,1480)">
            <rect x="4" y="4" width="56" height="56"/>
        </g>
        <g transform="matrix(1,0,0,1,1416,1480)">
            <rect x="4" y="4" width="56" height="56"/>
        </g>
        <g transform="matrix(1,0,0,1,1480,1480)">
            <rect x="4" y="4" width="56" height="56"/>
        </g>
        <g transform="matrix(1,0,0,1,1544,1480)">
            <rect x="4" y="4" width="56" height="56"/>
        </g>
        <g transform="matrix(1,0,0,1,712,1544)">
            <rect x="4" y="4" width="56" height="56"/>
        </g>
        <g transform="matrix(1,0,0,1,776,1544)">
            <rect x="4" y="4" width="56" height="56"/>
        </g>
        <g transform="matrix(1,0,0,1,840,1544)">
            <rect x="4" y="4" width="56" height="56"/>
        </g>
        <g transform="matrix(1,0,0,1,904,1544)">
            <rect x="4" y="4" width="56" height="56"/>
        </g>
        <g transform="matrix(1,0,0,1,1096,1544)">
            <rect x="4" y="4" width="56" height="56"/>
        </g>
        <g transform="matrix(1,0,0,1,1160,1544)">
            <rect x="4" y="4" width="56" height="56"/>
        </g>
        <g transform="matrix(1,0,0,1,1224,1544)">
            <rect x="4" y="4" width="56" height="56"/>
        </g>
        <g transform="matrix(1,0,0,1,1288,1544)">
            <rect x="4" y="4" width="56" height="56"/>
        </g>
        <g transform="matrix(1,0,0,1,1416,1544)">
            <rect x="4" y="4" width="56" height="56"/>
        </g>
        <g transform="matrix(1,0,0,1,1480,1544)">
            <rect x="4" y="4" width="56" height="56"/>
        </g>
        <g transform="matrix(1,0,0,1,1544,1544)">
            <rect x="4" y="4" width="56" height="56"/>
        </g>
        <g transform="matrix(1,0,0,1,1672,1544)">
            <rect x="4" y="4" width="56" height="56"/>
        </g>
        <g transform="matrix(1,0,0,1,1736,1544)">
            <rect x="4" y="4" width="56" height="56"/>
        </g>
        <g transform="matrix(1,0,0,1,712,1608)">
            <rect x="4" y="4" width="56" height="56"/>
        </g>
        <g transform="matrix(1,0,0,1,776,1608)">
            <rect x="4" y="4" width="56" height="56"/>
        </g>
        <g transform="matrix(1,0,0,1,904,1608)">
            <rect x="4" y="4" width="56" height="56"/>
        </g>
        <g transform="matrix(1,0,0,1,968,1608)">
            <rect x="4" y="4" width="56" height="56"/>
        </g>
        <g transform="matrix(1,0,0,1,1032,1608)">
            <rect x="4" y="4" width="56" height="56"/>
        </g>
        <g transform="matrix(1,0,0,1,1096,1608)">
            <rect x="4" y="4" width="56" height="56"/>
        </g>
        <g transform="matrix(1,0,0,1,1288,1608)">
            <rect x="4" y="4" width="56" height="56"/>
        </g>
        <g transform="matrix(1,0,0,1,1416,1608)">
            <rect x="4" y="4" width="56" height="56"/>
        </g>
        <g transform="matrix(1,0,0,1,1480,1608)">
            <rect x="4" y="4" width="56" height="56"/>
        </g>
        <g transform="matrix(1,0,0,1,1608,1608)">
            <rect x="4" y="4" width="56" height="56"/>
        </g>
        <g transform="matrix(1,0,0,1,1736,1608)">
            <rect x="4" y="4" width="56" height="56"/>
        </g>
        <g transform="matrix(1,0,0,1,712,1672)">
            <rect x="4" y="4" width="56" height="56"/>
        </g>
        <g transform="matrix(1,0,0,1,904,1672)">
            <rect x="4" y="4" width="56" height="56"/>
        </g>
        <g transform="matrix(1,0,0,1,968,1672)">
            <rect x="4" y="4" width="56" height="56"/>
        </g>
        <g transform="matrix(1,0,0,1,1032,1672)">
            <rect x="4" y="4" width="56" height="56"/>
        </g>
        <g transform="matrix(1,0,0,1,1160,1672)">
            <rect x="4" y="4" width="56" height="56"/>
        </g>
        <g transform="matrix(1,0,0,1,1224,1672)">
            <rect x="4" y="4" width="56" height="56"/>
        </g>
        <g transform="matrix(1,0,0,1,1288,1672)">
            <rect x="4" y="4" width="56" height="56"/>
        </g>
        <g transform="matrix(1,0,0,1,1352,1672)">
            <rect x="4" y="4" width="56" height="56"/>
        </g>
        <g transform="matrix(1,0,0,1,1480,1672)">
            <rect x="4" y="4" width="56" height="56"/>
        </g>
        <g transform="matrix(1,0,0,1,1544,1672)">
            <rect x="4" y="4" width="56" height="56"/>
        </g>
        <g transform="matrix(1,0,0,1,1608,1672)">
            <rect x="4" y="4" width="56" height="56"/>
        </g>
        <g transform="matrix(1,0,0,1,1672,1672)">
            <rect x="4" y="4" width="56" height="56"/>
        </g>
        <g transform="matrix(1,0,0,1,712,1736)">
            <rect x="4" y="4" width="56" height="56"/>
        </g>
        <g transform="matrix(1,0,0,1,1096,1736)">
            <rect x="4" y="4" width="56" height="56"/>
        </g>
        <g transform="matrix(1,0,0,1,1160,1736)">
            <rect x="4" y="4" width="56" height="56"/>
        </g>
        <g transform="matrix(1,0,0,1,1288,1736)">
            <rect x="4" y="4" width="56" height="56"/>
        </g>
        <g transform="matrix(1,0,0,1,1544,1736)">
            <rect x="4" y="4" width="56" height="56"/>
        </g>
        <g transform="matrix(1,0,0,1,1608,1736)">
            <rect x="4" y="4" width="56" height="56"/>
        </g>
        <g transform="matrix(1,0,0,1,1672,1736)">
            <rect x="4" y="4" width="56" height="56"/>
        </g>
        <g transform="matrix(1,0,0,1,1736,1736)">
            <rect x="4" y="4" width="56" height="56"/>
        </g>
        <g id="Ebene_1" transform="matrix(1,0,0,1,200,200)">
            <path d="M13.568,-0.064C6.08,-0.064 -0.064,6.08 -0.064,13.568L-0.064,434.432C-0.064,441.92 6.016,448.064 13.568,448.064L434.432,448.064C441.92,448.064 448.064,441.984 448.064,434.432L448.064,13.568C448.064,6.08 441.984,-0.064 434.432,-0.064L13.568,-0.064ZM384,71.808L384,376.192C384,380.544 380.48,384 376.192,384L71.808,384C67.456,384 64,380.48 64,376.192L64,71.808C64,67.456 67.52,64 71.808,64L376.192,64C380.544,64 384,67.52 384,71.808Z" style="fill-rule:nonzero;"/>
        </g>
        <g id="Ebene_11" serif:id="Ebene_1" transform="matrix(1,0,0,1,200,200)">
            <path d="M320,306.432L320,141.568C320,134.08 313.92,127.936 306.368,127.936L141.568,127.936C134.08,127.936 127.936,134.016 127.936,141.568L127.936,306.432C127.936,313.92 134.016,320.064 141.568,320.064L306.368,320.064C313.856,320.064 320,313.984 320,306.432Z" style="fill-rule:nonzero;"/>
        </g>
        <g id="Ebene_12" serif:id="Ebene_1" transform="matrix(1,0,0,1,1352,200)">
            <path d="M13.568,-0.064C6.08,-0.064 -0.064,6.08 -0.064,13.568L-0.064,434.432C-0.064,441.92 6.016,448.064 13.568,448.064L434.432,448.064C441.92,448.064 448.064,441.984 448.064,434.432L448.064,13.568C448.064,6.08 441.984,-0.064 434.432,-0.064L13.568,-0.064ZM384,71.808L384,376.192C384,380.544 380.48,384 376.192,384L71.808,384C67.456,384 64,380.48 64,376.192L64,71.808C64,67.456 67.52,64 71.808,64L376.192,64C380.544,64 384,67.52 384,71.808Z" style="fill-rule:nonzero;"/>
        </g>
        <g id="Ebene_13" serif:id="Ebene_1" transform="matrix(1,0,0,1,1352,200)">
            <path d="M320,306.432L320,141.568C320,134.08 313.92,127.936 306.368,127.936L141.568,127.936C134.08,127.936 127.936,134.016 127.936,141.568L127.936,306.432C127.936,313.92 134.016,320.064 141.568,320.064L306.368,320.064C313.856,320.064 320,313.984 320,306.432Z" style="fill-rule:nonzero;"/>
        </g>
        <g id="Ebene_14" serif:id="Ebene_1" transform="matrix(1,0,0,1,200,1352)">
            <path d="M13.568,-0.064C6.08,-0.064 -0.064,6.08 -0.064,13.568L-0.064,434.432C-0.064,441.92 6.016,448.064 13.568,448.064L434.432,448.064C441.92,448.064 448.064,441.984 448.064,434.432L448.064,13.568C448.064,6.08 441.984,-0.064 434.432,-0.064L13.568,-0.064ZM384,71.808L384,376.192C384,380.544 380.48,384 376.192,384L71.808,384C67.456,384 64,380.48 64,376.192L64,71.808C64,67.456 67.52,64 71.808,64L376.192,64C380.544,64 384,67.52 384,71.808Z" style="fill-rule:nonzero;"/>
        </g>
        <g id="Ebene_15" serif:id="Ebene_1" transform="matrix(1,0,0,1,200,1352)">
            <path d="M320,306.432L320,141.568C320,134.08 313.92,127.936 306.368,127.936L141.568,127.936C134.08,127.936 127.936,134.016 127.936,141.568L127.936,306.432C127.936,313.92 134.016,320.064 141.568,320.064L306.368,320.064C313.856,320.064 320,313.984 320,306.432Z" style="fill-rule:nonzero;"/>
        </g>
    </g>
</svg>
