<?xml version="1.0" encoding="UTF-8" standalone="no"?>
<!DOCTYPE svg PUBLIC "-//W3C//DTD SVG 1.1//EN" "http://www.w3.org/Graphics/SVG/1.1/DTD/svg11.dtd">
<svg width="100%" height="100%" viewBox="0 0 602 207" version="1.1" xmlns="http://www.w3.org/2000/svg" xmlns:xlink="http://www.w3.org/1999/xlink" xml:space="preserve" xmlns:serif="http://www.serif.com/" style="fill-rule:evenodd;clip-rule:evenodd;stroke-linejoin:round;stroke-miterlimit:2;">
    <g transform="matrix(1,0,0,1,-579.757,-573.505)">
        <g transform="matrix(0.428625,0,0,0.428625,291.614,162.443)">
            <g transform="matrix(0.640375,0,0,0.640375,447.159,879.235)">
                <path d="M724.223,440.228L725.361,446.018C725.832,448.126 726.26,450.231 726.635,452.554C727.316,456.678 727.787,461.248 728.232,466.09C727.889,465.995 727.479,465.9 726.992,465.802C725.537,465.485 723.443,465.129 721.074,464.321C719.893,463.926 718.639,463.386 717.441,462.696C716.234,461.97 714.969,461.062 713.803,459.971C711.441,457.801 709.375,454.849 707.762,451.359C706.143,447.872 705.061,444.251 704.193,440.899C703.332,437.541 702.688,434.436 702.094,431.819C701.412,428.712 700.775,426.308 700.227,424.88C701.293,424.513 702.361,424.176 703.396,423.895C707.115,422.874 710.717,422.48 713.602,423.417C716.502,424.304 718.641,426.542 720.193,428.94C721.33,430.704 723.768,437.893 724.223,440.228ZM664.676,457.135C663.016,460.971 661.652,464.622 660.568,468.246C659.555,471.816 658.822,475.171 658.268,478.252C657.166,484.412 656.752,489.446 656.621,492.926C656.557,494.793 656.578,496.199 656.662,497.12C656.637,497.136 656.607,497.15 656.58,497.165C656.127,497.438 654.377,498.503 653.738,498.88C651.736,500.075 648.951,502.015 645.816,504.794C644.236,506.19 642.613,507.756 640.893,509.597C639.213,511.466 637.58,513.519 635.945,515.739C632.668,520.162 629.486,525.206 625.826,530.072C622.184,534.93 618.23,539.11 614.029,541.907C609.803,544.742 605.357,546.396 601.555,547.608C597.732,548.804 594.52,549.577 592.314,550.229C591.389,550.498 589.736,550.96 589.553,550.962C588.516,549.024 585.826,545.319 581.416,540.857C579.859,539.274 578.104,537.604 576.195,535.852C574.266,534.077 572.111,532.27 569.771,530.474C565.09,526.877 559.629,523.37 553.716,520.099C547.803,516.823 542.022,514.053 536.751,511.629C531.476,509.212 526.703,507.135 522.695,505.398C516.867,502.887 512.654,501.081 510.655,500.506C511.955,499.272 514.068,496.604 516.458,492.695C520.021,486.86 524.133,478.263 526.964,468.162C528.379,463.116 529.326,458.18 529.774,453.625C529.998,451.336 530.098,449.195 530.082,447.095C530.002,444.984 529.809,443.126 529.537,441.402C529,437.974 528.215,435.292 527.538,433.491C527.188,432.568 526.863,431.878 526.589,431.432C526.593,431.412 526.592,431.396 526.596,431.376C527.908,431.031 530.107,430.075 532.907,428.566C537.242,426.197 543.109,422.466 548.608,417.004C551.348,414.277 553.681,411.369 555.495,408.527C557.315,405.686 558.617,402.924 559.482,400.541C559.836,399.553 560.115,398.638 560.34,397.801C560.346,397.789 560.352,397.777 560.357,397.765C560.383,397.813 560.402,397.858 560.43,397.907C561.129,399.189 562.369,400.916 564.201,402.768C566.027,404.621 568.445,406.589 571.344,408.408C574.24,410.233 577.609,411.913 581.273,413.307C584.938,414.701 588.541,415.686 591.861,416.336C593.506,416.66 595.15,416.903 596.572,417.069C598.043,417.279 599.504,417.396 600.801,417.412C603.414,417.457 605.531,417.129 606.941,416.712C606.994,416.696 607.041,416.679 607.092,416.663C607.301,417.151 607.738,417.85 608.447,418.716C609.695,420.229 611.809,422.19 614.736,424.089C617.65,426.013 621.35,427.86 625.443,429.666L631.795,432.459L638.584,435.569C643.285,437.697 647.938,439.589 652.369,440.834C654.582,441.461 656.736,441.928 658.77,442.235C660.783,442.541 662.688,442.722 664.434,442.784C667.932,442.913 670.783,442.518 672.672,441.994C672.75,441.971 672.816,441.95 672.889,441.928C669.52,446.987 666.855,452.174 664.676,457.135ZM691.811,413.218C690.309,412.773 688.592,412.057 686.799,410.992C685.006,409.934 683.143,408.534 681.334,406.86C677.707,403.504 675.027,399.785 673.264,396.989C672.75,396.178 672.311,395.443 671.926,394.805C677.66,398.391 682.75,401.778 686.852,405.09C689.463,407.181 691.678,409.227 693.445,411.167C694.361,412.171 695.152,413.146 695.83,414.074C694.877,413.895 693.473,413.712 691.811,413.218ZM555.914,149.405C555.284,151.168 554.276,153.159 552.83,155.167C551.382,157.174 549.489,159.194 547.241,161.034C542.735,164.739 537.791,166.939 534.101,168.006C532.987,168.335 531.984,168.57 531.119,168.759C534.781,164.37 538.849,159.832 543.471,155.584C546.363,152.95 549.197,150.486 552.123,148.537C553.701,147.481 555.29,146.597 556.889,145.921C556.677,146.896 556.39,148.083 555.914,149.405ZM466.714,248.944C466.087,249.869 465.481,250.767 464.907,251.625C464.211,252.665 463.56,253.651 462.948,254.585C461.739,254.188 459.604,253.892 457.192,253.594C453.497,253.168 450.414,252.909 450.175,253.693C449.933,254.45 452.866,256.032 456.848,256.496C458.753,256.728 460.481,256.648 461.763,256.417C460.394,258.55 455.46,263.99 453.898,265.938C449.668,271.245 444.621,279.835 439.215,290.787C436.512,296.255 433.89,302.416 431.498,309.173C429.099,315.929 426.939,323.279 425.015,331.081C423.088,338.883 421.396,347.137 419.83,355.704C418.342,364.254 416.535,372.95 414.342,381.855C414.25,382.234 414.151,382.604 414.058,382.98C413.754,379.905 413.321,376.096 412.947,371.69C412.707,368.67 412.498,365.365 412.524,361.855C412.543,358.33 412.767,354.556 413.173,350.588C413.96,342.645 415.581,333.936 416.926,324.605C417.589,319.942 418.117,315.33 418.371,310.844C418.6,306.458 418.943,302.283 419.321,298.261C420.087,290.232 420.892,282.955 421.312,276.803C421.601,272.916 423.011,258.701 423.54,251.967C423.748,249.285 423.922,246.344 424.041,243.181L424.217,238.29C424.255,236.578 424.248,234.831 424.219,233.049C424.134,227.964 423.895,222.564 423.758,216.958C424.021,216.911 424.315,216.839 424.648,216.74C425.905,216.356 427.648,215.565 429.589,214.226C431.523,212.89 433.654,211.003 435.593,208.51C437.522,206.021 439.286,202.913 440.244,199.257C441.212,195.621 441.13,191.753 439.982,188.553C438.859,185.33 436.815,182.953 434.916,181.449C432.993,179.93 431.208,179.159 429.951,178.778C429.837,178.745 429.731,178.718 429.625,178.69C431.104,176.698 433.027,175.484 434.884,174.462C440.371,171.441 447.788,174.908 450.246,176.222C451.165,176.715 452.093,177.279 453,177.925C453.449,178.241 453.916,178.604 454.32,178.946C454.526,179.108 454.71,179.301 454.913,179.497C455.125,179.704 455.333,179.917 455.54,180.136C457.197,181.883 458.715,183.984 459.997,186.399C462.583,191.226 464.183,197.249 465.06,203.738C465.939,210.24 466.118,216.592 466.183,222.384L466.189,237.878C466.218,242.314 466.37,245.931 466.651,248.424C466.67,248.608 466.693,248.773 466.714,248.944ZM412.465,386.405C412.594,386.919 412.716,387.385 412.834,387.828C408.818,403.395 404.311,418.115 400.393,431.733C400.04,432.952 399.7,434.147 399.357,435.348C398.521,432.047 397.213,427.225 395.748,421.176C394.324,415.304 392.767,408.283 391.262,400.438C390.492,396.504 389.807,392.416 389.005,388.062C388.197,383.74 387.279,379.286 386.289,374.744C384.304,365.66 382.248,357.078 380.487,349.266C379.829,346.349 379.205,343.543 378.628,340.857C379.129,340.458 379.688,339.938 380.283,339.26C381.175,338.233 382.1,336.858 382.826,335.182C383.556,333.512 384.083,331.544 384.26,329.451C384.63,325.241 383.567,321.5 382.392,319.098C381.691,317.669 380.985,316.686 380.453,316.149C381.501,315.629 382.734,315.085 384.138,314.695C386.454,314.042 389.146,314.051 391.693,315.568C394.263,317.041 396.647,319.836 398.715,323.12C400.792,326.42 402.44,329.881 403.876,333.071C405.311,336.277 406.514,339.215 407.563,341.701C408.122,343.047 408.653,344.244 409.146,345.276C408.971,346.938 408.814,348.586 408.703,350.201C408.408,354.31 408.327,358.245 408.486,361.931C408.64,365.633 409.06,369.023 409.528,372.094C410.496,378.229 411.641,383.067 412.465,386.405ZM378.056,338.167C377.313,334.664 376.594,331.466 376.299,328.604C375.99,325.742 376.201,323.24 376.918,321.163C377.507,319.414 379.48,316.645 379.614,316.575C379.754,317.287 380.091,318.388 380.453,319.812C381.059,322.202 381.672,325.554 381.35,329.197C381.055,332.848 379.8,335.951 378.597,338.066C378.457,338.316 378.319,338.552 378.186,338.778C378.143,338.576 378.098,338.367 378.056,338.167ZM423.661,210.13C423.659,202.088 424.046,194.42 425.647,187.882C426.368,184.972 427.357,182.306 428.68,180.105C428.787,180.21 428.901,180.318 429.024,180.432C429.919,181.271 431.232,182.394 432.536,183.938C433.832,185.479 435.083,187.466 435.696,189.885C436.328,192.292 436.295,195.122 435.53,198.033C434.77,200.947 433.423,203.621 431.945,205.896C430.461,208.179 428.837,210.075 427.374,211.589C425.912,213.095 424.615,214.239 423.72,215.086C423.688,213.448 423.663,211.798 423.661,210.13ZM723.148,427.175C722.344,425.729 721.346,424.245 719.994,422.889C718.658,421.531 716.922,420.337 714.93,419.602C712.939,418.86 710.764,418.589 708.633,418.642C706.494,418.698 704.377,419.047 702.287,419.546C701.568,419.721 700.859,419.915 700.15,420.118C700.105,419.071 699.854,417.547 699.148,415.72C698.432,413.846 697.238,411.685 695.545,409.434C693.855,407.18 691.678,404.835 689.096,402.477C683.941,397.739 677.143,392.993 669.551,388.062C667.658,386.823 665.719,385.566 663.781,384.265C661.859,382.979 659.916,381.566 657.906,380.153C653.922,377.311 649.83,374.307 645.646,371.208C637.277,365.008 629.295,359.045 621.832,353.865C618.09,351.277 614.539,348.872 611.039,346.689C607.543,344.588 604.234,342.795 601.232,341.164C595.211,337.933 579.955,325.431 575.18,321.36C572.803,319.338 570.01,317.216 566.904,315.245C563.756,313.214 560.154,311.317 556.074,309.954C552.014,308.589 547.428,307.788 542.706,307.976C537.955,308.106 533.129,309.281 528.577,311.136C524.008,312.991 519.893,315.424 516.14,317.987C512.369,320.583 509.008,323.419 505.984,326.263C504.123,328.015 502.409,329.757 500.785,331.48C500.797,330.898 500.803,330.226 500.811,329.453C500.856,326.65 500.939,322.604 501.938,317.812C502.912,313.019 504.965,307.554 508.361,302.017C511.716,296.45 516.331,290.823 521.218,284.783C526.106,278.751 530.668,272.711 534.054,266.692C537.464,260.665 539.699,254.88 541.223,249.939C542.736,244.995 548.186,231.002 551.88,225.672C554.584,221.772 557.914,217.212 561.779,212.259C563.709,209.782 565.771,207.199 567.928,204.541C570.094,201.879 572.377,199.097 574.596,196.099C576.813,193.103 578.854,190.015 580.518,186.808C582.182,183.607 583.453,180.276 584.164,176.958C584.883,173.642 585.025,170.365 584.717,167.37C584.389,164.352 583.68,161.704 582.85,159.34C581.203,154.726 579.123,151.374 577.527,149.166C577.51,149.14 577.498,149.115 577.482,149.089C576.027,146.769 574.043,144.283 571.113,142.406C569.65,141.468 567.922,140.73 566.061,140.357C564.201,139.98 562.238,139.97 560.338,140.244C558.483,140.503 556.535,141.025 554.73,141.779C552.911,142.527 551.176,143.475 549.512,144.543C546.182,146.684 543.147,149.295 540.188,151.987C534.192,157.499 529.298,163.44 525.135,168.97C523.062,171.751 521.159,174.386 519.4,176.929C517.655,179.462 516.094,181.859 514.702,184.065C513.159,186.515 508.802,193.039 507.728,194.383C506.3,196.167 504.753,198.032 502.999,200.103C501.28,202.197 499.467,204.445 497.589,206.816C493.828,211.567 489.776,216.851 485.604,222.456C479.224,231.034 473.477,239.1 468.847,245.826C469.083,243.681 469.347,241.063 469.63,238.023C470.032,233.615 470.472,228.344 470.669,222.436C470.85,216.532 470.814,209.973 469.885,203.079C468.954,196.206 467.095,189.597 463.909,184.2C462.33,181.507 460.43,179.151 458.369,177.254C458.112,177.017 457.852,176.788 457.591,176.563C457.316,176.334 457.041,176.089 456.737,175.882C456.147,175.456 455.609,175.106 455.041,174.77C453.918,174.104 445.713,167.715 433.692,171.232C432.25,171.654 430.816,172.415 429.479,173.396C428.142,174.373 426.923,175.602 425.875,176.993C423.769,179.785 422.333,183.158 421.313,186.724C419.3,193.892 418.797,201.887 418.791,210.137C418.806,218.396 419.374,226.19 419.735,233.198C419.823,234.949 419.898,236.649 419.934,238.287C419.953,239.121 419.96,239.872 419.955,240.726L420.003,243.141C420.059,246.266 420.086,249.18 420.1,251.843C420.111,254.619 419.065,268.437 417.887,276.44C417.036,282.487 415.882,289.683 414.861,297.773C414.357,301.81 413.906,306.111 413.61,310.533C413.302,314.854 412.758,319.322 412.104,323.921C411.428,328.624 410.703,333.24 410.078,337.73C409.533,335.774 408.862,333.638 408.033,331.382C406.763,327.955 405.153,324.215 402.831,320.518C401.664,318.674 400.361,316.933 398.865,315.393C397.372,313.856 395.671,312.514 393.773,311.592C391.886,310.66 389.803,310.211 387.901,310.277C385.993,310.331 384.311,310.838 382.936,311.469C380.179,312.765 376.388,315.65 374.393,320.145C373.316,322.569 372.741,325.626 372.863,328.823C372.962,332.032 373.521,335.387 374.085,338.905C374.65,342.449 375.328,346.23 376.096,350.188C377.628,358.109 379.556,366.744 381.531,375.782C382.516,380.301 383.46,384.71 384.322,388.973C385.167,393.207 385.974,397.423 386.87,401.352C388.635,409.243 390.563,416.278 392.433,422.107C394.844,429.631 397.122,435.113 398.599,438.007C397.068,443.414 395.642,448.633 394.352,453.621L393.063,458.722C392.638,460.4 392.305,462.101 391.981,463.724C391.341,466.998 390.849,470.165 390.48,473.202C389.002,485.377 389.854,495.357 390.994,502.052C391.395,504.367 394.904,527.938 394.904,527.938C395.729,533.952 396.641,540.797 397.399,548.37C397.775,552.158 398.111,556.129 398.354,560.265C398.607,564.396 398.712,568.716 398.844,573.211C399.088,582.181 399.194,591.771 399.162,601.864C399.103,622.052 398.427,644.251 397.297,667.544C396.736,679.191 396.097,690.566 395.451,701.543C394.792,712.463 393.683,722.967 392.271,732.927C389.447,752.853 385.442,770.577 381.497,785.296C377.548,800.022 373.669,811.759 370.953,819.858C368.221,827.954 366.672,832.435 366.997,832.566C367.294,832.689 369.438,828.449 372.728,820.522C376.002,812.594 380.403,800.96 384.81,786.235C389.211,771.521 393.608,753.702 396.709,733.583C398.26,723.528 399.48,712.902 400.212,701.845C400.924,690.845 401.599,679.457 402.161,667.779C403.293,644.426 403.836,622.135 403.649,601.853C403.558,591.712 403.3,582.075 402.879,573.063C402.66,568.568 402.459,564.202 402.102,560C401.756,555.805 401.31,551.796 400.821,547.98C399.834,540.351 398.676,533.503 397.593,527.512C396.505,521.519 392.979,503.038 392.875,501.817C392.328,495.155 392.024,485.441 393.892,473.672C394.357,470.733 394.938,467.668 395.659,464.497C396.348,461.313 397.277,458.105 398.249,454.678C400.188,447.876 402.361,440.632 404.694,433.012C409.335,417.767 414.656,401.002 419.072,383.014C421.284,374.039 423.102,365.113 424.526,356.545C426.019,348.022 427.599,339.84 429.38,332.123C431.157,324.405 433.134,317.15 435.32,310.475C437.04,305.207 438.886,300.305 440.792,295.794C441.631,296.313 442.816,296.771 444.153,297.033C447.017,297.59 449.393,297.163 449.479,296.371C449.57,295.561 447.393,294.688 444.721,294.167C443.565,293.94 442.519,293.805 441.667,293.755C441.887,293.253 442.107,292.75 442.329,292.257C444.236,288.006 446.183,284.164 448.065,280.72C449.09,281.28 450.632,281.971 452.109,283.019C454.685,284.799 456.451,287.084 457.198,286.68C457.543,286.489 457.529,285.648 457.019,284.469C456.514,283.302 455.451,281.778 453.778,280.619C452.13,279.461 450.322,278.997 449.044,278.956C451.629,274.364 454.062,270.546 456.073,267.52C456.921,266.254 457.686,265.128 458.367,264.129C458.698,265.247 459.587,266.941 460.711,268.79C462.481,271.658 464.219,273.86 464.958,273.521C465.689,273.192 465.067,270.288 463.201,267.26C461.948,265.2 460.47,263.684 459.454,263.079C461.237,261.318 464.088,258.058 467.675,253.673C473.48,246.583 481.185,236.557 489.511,225.364C493.676,219.768 497.609,214.415 501.162,209.53L506.178,202.593C507.769,200.447 509.261,198.328 510.515,196.405C512.017,194.102 516.383,187.548 517.534,186.022C519.096,183.96 520.802,181.704 522.659,179.313C524.513,176.937 526.548,174.376 528.674,171.729C528.89,171.462 529.114,171.191 529.332,170.922C529.389,170.941 529.44,170.96 529.5,170.978C530.69,171.326 532.486,171.559 534.691,171.398C539.09,171.109 545.099,169.104 550.33,164.8C552.942,162.663 555.081,160.168 556.594,157.61C558.106,155.053 558.979,152.439 559.267,150.192C559.547,148.083 559.359,146.341 559.034,145.148C559.701,144.952 560.369,144.789 561.039,144.676C564.018,144.117 566.746,144.565 569.033,145.868C570.182,146.504 571.227,147.322 572.164,148.208C573.078,149.07 573.906,150.062 574.637,151.029C576.102,152.989 577.23,154.977 578.186,156.754C578.461,157.268 579.369,159.613 579.557,160.345C580.115,162.561 580.572,165.064 580.689,167.664C580.793,170.284 580.529,173.083 579.795,175.935C578.359,181.667 574.951,187.474 570.68,193.205C568.549,196.083 566.332,198.841 564.197,201.567C562.063,204.303 560.051,206.977 558.186,209.571C554.454,214.755 551.347,219.625 548.963,223.841C547.334,226.727 546.044,229.283 545.063,231.422C545.034,230.797 544.962,230.105 544.829,229.343C544.527,227.633 543.893,225.625 542.857,223.567C541.827,221.508 540.396,219.423 538.713,217.467C535.316,213.564 531.781,210.799 529.228,208.852C526.646,206.935 524.9,205.874 524.393,206.319C523.888,206.761 524.785,208.698 526.809,211.304C528.804,213.927 531.95,217.104 535.02,220.64C536.547,222.417 537.881,224.145 538.963,225.794C540.046,227.442 540.887,229.006 541.545,230.375C542.383,232.126 542.962,233.538 543.454,234.314C541.271,238.674 536.056,261.258 517.424,281.729C512.564,287.743 507.862,293.667 504.482,299.762C502.786,302.796 501.425,305.852 500.443,308.813C500.057,309.978 499.742,311.119 499.469,312.243C499.281,311.574 499.001,310.819 498.583,309.978C497.882,308.579 496.797,307.032 495.393,305.556C493.993,304.073 492.292,302.675 490.496,301.374C488.698,300.073 486.991,298.96 485.493,297.936C483.989,296.916 482.692,295.983 481.609,295.165C479.451,293.541 478.092,292.361 477.503,292.722C476.945,293.05 477.324,295.01 479.118,297.543C480.007,298.798 481.244,300.152 482.721,301.464C484.195,302.781 485.897,304.055 487.635,305.314C489.373,306.574 490.969,307.726 492.329,308.833C493.693,309.938 494.829,310.997 495.76,311.948C497.221,313.446 498.211,314.644 498.887,314.962C498.748,315.743 498.628,316.512 498.54,317.258C497.914,322.521 498.383,326.779 498.924,329.624C499.179,330.92 499.447,331.92 499.695,332.637C499.055,333.332 498.428,334.022 497.814,334.708C495.408,337.513 493.295,340.14 491.395,342.601C488.452,346.424 465.337,373.569 465.337,373.569C461.459,377.918 457.179,382.705 452.782,387.845C448.386,392.984 444.31,398.008 440.8,402.744C439.041,405.115 437.431,407.386 435.957,409.594C434.525,411.777 433.241,413.787 432.009,415.605C427.129,422.892 423.924,427.339 424.461,427.801C424.939,428.219 429.088,424.548 434.773,417.659C436.201,415.947 437.692,413.99 439.253,411.926C440.805,409.91 442.528,407.739 444.346,405.492C447.99,400.988 452.114,396.117 456.484,391.009C460.853,385.9 465.035,381.02 468.747,376.485C472.465,371.956 494.045,344.8 494.045,344.8C496.079,342.521 498.35,340.019 500.788,337.439C503.278,334.914 506.027,332.216 509.01,329.577C509.633,329.026 510.274,328.478 510.919,327.931C512.583,329.502 515.31,331.396 518.653,332.99C521.688,334.452 524.639,335.389 526.886,335.729C529.139,336.079 530.644,335.819 530.803,335.172C530.969,334.513 529.869,333.62 528.057,332.491C526.236,331.368 523.669,330.001 520.763,328.601C518.156,327.358 515.728,326.298 513.768,325.601C515.38,324.338 517.06,323.108 518.818,321.936C522.413,319.558 526.263,317.33 530.411,315.647C533.871,314.24 537.386,313.287 540.851,312.907C540.788,313.308 540.751,313.771 540.738,314.289C540.703,315.842 540.833,317.856 541,320.086C541.352,324.511 541.745,328.339 543.092,328.577C543.75,328.677 544.521,327.794 545.104,326.194C545.687,324.6 546.054,322.279 545.854,319.713C545.666,317.146 544.926,314.878 544.063,313.396C543.92,313.145 543.773,312.926 543.627,312.72C547.51,312.601 551.243,313.187 554.713,314.231C555.58,314.491 556.426,314.783 557.257,315.093C557.221,315.467 557.191,315.874 557.168,316.316C557.068,318.279 556.978,320.857 556.59,323.664C556.203,326.472 555.598,328.992 555.18,330.921C554.77,332.846 554.598,334.206 555.178,334.566C555.736,334.915 556.98,334.159 558.305,332.369C559.625,330.596 560.949,327.728 561.414,324.328C561.824,321.395 561.498,318.661 560.875,316.64C562.234,317.285 563.549,317.967 564.791,318.685C567.893,320.453 570.596,322.268 573.051,324.063C577.588,327.403 585.193,333.904 586.139,334.72C589.066,337.27 593.674,340.514 599.492,344.135C602.391,345.962 605.572,347.913 608.881,350.103C612.115,352.32 615.598,354.857 619.221,357.514C626.475,362.848 634.346,368.896 642.748,375.123C646.951,378.234 651.094,381.235 655.16,384.055C657.195,385.445 659.186,386.843 661.227,388.15C663.242,389.449 665.225,390.665 667.148,391.85C667.914,392.32 668.668,392.783 669.418,393.246C669.244,394.258 669.383,396.089 670.137,398.427C671.266,401.952 673.822,406.542 678.029,410.435C680.125,412.377 682.434,413.934 684.744,414.982C687.051,416.038 689.354,416.561 691.299,416.624C693.252,416.691 694.813,416.334 695.801,415.898C696.197,415.723 696.502,415.542 696.725,415.37C696.982,415.767 697.221,416.155 697.434,416.527C698.344,418.131 698.861,419.467 699.199,420.396C698.154,420.716 697.107,421.07 696.035,421.46C693.879,422.269 691.781,423.323 689.777,424.572C685.764,427.072 682.145,430.337 678.912,434.005C677.154,436.018 675.557,438.09 674.078,440.19C672.355,440.072 669.092,440.099 664.771,439.357C663.166,439.089 661.418,438.729 659.545,438.272C657.695,437.822 655.742,437.251 653.705,436.55C649.629,435.158 645.242,433.238 640.586,431.129C638.252,430.078 635.971,429.044 633.699,428.084C631.418,427.13 629.223,426.304 627.152,425.517C623.008,423.956 619.371,422.522 616.439,421.095C612.227,419.105 609.502,417.101 608.09,416.284C608.242,416.213 609.697,415.672 610.385,415.374C613.188,414.16 616.822,411.734 619.834,408.032C622.863,404.347 624.496,400.181 624.941,397.11C625.408,394.013 624.902,392.09 624.258,392.028C623.572,391.953 622.85,393.645 621.648,396.105C620.453,398.572 618.65,401.794 616.057,404.957C612.195,409.743 607.785,412.911 606.057,414.736C604.768,414.578 603.102,414.374 601.143,413.986C599.963,413.758 598.725,413.475 597.326,413.103C595.869,412.751 594.443,412.396 592.883,411.967C589.797,411.119 586.441,410.063 583.006,408.756C576.119,406.163 570.324,402.935 566.438,400.149C563.961,398.399 562.197,396.876 561.09,396.1C561.098,396.075 561.109,396.052 561.119,396.027C561.977,393.849 562.688,391.121 563.031,388.052C563.383,384.984 563.373,381.586 562.988,378.092C562.201,371.091 560.213,365.092 558.468,360.941C556.695,356.785 555.145,354.426 554.522,354.651C553.879,354.882 554.285,357.658 555.181,361.967C556.056,366.279 557.424,372.146 558.146,378.624C558.503,381.861 558.64,384.938 558.556,387.723C558.479,390.508 558.179,392.996 557.809,395.079C557.662,395.888 556.72,398.465 556.359,399.088C555.165,401.134 553.67,403.501 551.806,405.972C549.946,408.446 547.715,411.02 545.169,413.556C540.072,418.626 534.777,422.646 531.003,425.697C528.158,427.97 523.607,431.044 522.218,431.468C519.86,432.191 516.703,433.208 513.142,434.036C509.584,434.875 506.313,435.373 503.884,435.751C501.461,436.138 499.852,436.461 499.748,437.142C499.645,437.788 501.146,438.69 503.81,439.194C506.458,439.705 510.252,439.723 514.255,438.775C518.263,437.845 521.641,436.142 523.793,434.529C524.567,433.952 525.182,433.396 525.643,432.894C525.651,433.196 525.663,433.521 525.684,433.885C525.781,435.763 526.027,438.439 526.107,441.716C526.15,443.34 526.139,445.166 526.045,447.012C525.893,448.865 525.652,450.942 525.321,453.066C524.662,457.339 523.633,462.009 522.275,466.848C519.56,476.535 516.099,485.029 513.409,491.095C511.533,495.324 510.043,498.399 509.504,500.01C508.726,499.638 507.61,499.268 506.213,498.955C503.325,498.29 499.331,497.894 495.035,497.581C490.732,497.271 486.94,496.973 484.173,496.684C481.408,496.422 479.603,496.238 479.322,496.87C479.052,497.462 480.442,498.936 483.303,500.016C486.444,501.202 503.095,502.426 505.96,502.389C509.563,502.345 515.784,505.49 521.172,508.485C525.011,510.632 529.65,513.04 534.794,515.666C539.936,518.3 545.578,521.156 551.353,524.356C557.13,527.554 562.469,530.827 567.117,534.091C569.441,535.723 571.598,537.336 573.568,538.919C575.568,540.517 577.42,542.01 579.084,543.393C583.051,546.668 585.953,549.384 587.775,550.96C587.693,550.959 587.611,550.958 587.527,550.956C582.867,550.893 576.369,550.343 569.197,549.403C562.023,548.468 555.544,547.373 550.86,546.563C546.171,545.775 543.289,545.173 543.012,545.78C542.723,546.394 545.329,548.203 549.963,549.889C554.582,551.594 561.156,553.267 568.568,554.232C575.977,555.203 582.844,555.231 587.799,554.39C590.271,553.978 599.361,551.547 602.408,550.944C606.51,550.106 611.484,548.689 616.436,545.693C621.426,542.688 625.861,538.135 629.713,533.007C633.57,527.87 636.635,522.743 639.615,518.319C641.096,516.107 642.557,514.035 643.971,512.211C645.416,510.417 646.885,508.724 648.23,507.248C650.938,504.273 653.293,502.001 654.904,500.377C655.152,500.127 656.721,499.271 657.436,499.045C659.473,498.38 662.334,497.876 665.631,497.949C666.455,497.958 667.264,497.997 668.049,498.046L670.326,498.206C671.732,498.331 673.037,498.544 674.154,498.694C676.396,499.013 677.875,499.02 677.965,498.62C678.053,498.231 676.816,497.534 674.67,496.691C673.59,496.281 672.266,495.839 670.703,495.54C670.307,495.466 669.906,495.405 669.512,495.354C669.133,495.297 668.721,495.24 668.299,495.194C667.459,495.102 666.58,495.038 665.67,495.026C663.854,495 662.096,495.189 660.533,495.577C659.498,495.833 658.566,496.179 657.744,496.562C657.963,495.703 658.213,494.569 658.504,493.151C659.207,489.778 660.135,484.895 661.635,478.98C662.385,476.028 663.291,472.814 664.424,469.45C665.58,466.167 667.07,462.591 668.764,458.986C672.189,451.771 676.59,444.058 682.568,437.224C685.559,433.826 688.828,430.854 692.328,428.603C694.078,427.477 695.881,426.532 697.713,425.798C698.018,425.679 698.33,425.565 698.639,425.449C698.514,426.983 698.529,429.325 698.684,432.296C698.846,435.013 699.148,438.26 699.811,441.863C700.482,445.459 701.504,449.438 703.35,453.418C705.178,457.39 707.805,460.928 710.883,463.378C712.416,464.614 714.008,465.562 715.611,466.296C717.256,467.014 718.811,467.43 720.25,467.665C723.123,468.137 725.424,467.958 726.973,467.696C727.529,467.595 727.986,467.479 728.35,467.359C728.361,467.498 728.768,471.835 728.768,471.835L728.971,473.841C729.033,474.523 729.137,475.215 729.236,475.888C729.637,478.524 730.156,481.057 730.779,483.441C732.021,488.214 733.709,492.348 735.375,495.642C736.313,497.494 737.227,499.083 738.066,500.424C736.609,499.563 734.998,498.811 733.271,498.233C728.168,496.524 723.299,496.509 719.939,497.008C716.553,497.524 714.621,498.506 714.725,499.15C714.826,499.833 716.875,500.076 720.002,500.451C723.123,500.835 727.377,501.389 731.721,502.849C733.889,503.576 735.855,504.464 737.541,505.439C739.229,506.412 740.637,507.47 741.775,508.449C742.242,508.853 742.664,509.237 743.049,509.597C743.418,510.469 743.779,511.368 744.117,512.325C744.553,513.6 744.941,514.948 745.223,516.354C745.361,517.069 745.471,517.755 745.533,518.484C745.598,519.227 745.633,519.982 745.637,520.75C745.645,523.819 745.059,527.079 743.818,530.341C743.395,531.462 742.893,532.584 742.33,533.703C742.156,533.128 741.934,532.5 741.646,531.814C740.424,528.887 738.021,525.086 734.432,521.745C730.852,518.396 726.855,516.252 723.809,515.307C720.75,514.336 718.709,514.419 718.521,515.039C718.314,515.7 719.91,516.771 722.318,518.409C724.736,520.039 727.934,522.339 731.109,525.307C735.863,529.685 739.094,534.327 740.969,536.204C740.209,537.493 739.375,538.778 738.473,540.052C736.211,543.25 733.547,546.391 730.699,549.562C730.367,549.919 730.043,550.275 729.713,550.633C728.92,549.659 727.932,548.516 726.781,547.22C723.352,543.35 718.5,538.163 713.479,532.215C708.449,526.275 704.332,520.625 701.688,516.324C699.01,512.049 697.711,509.139 697.037,509.315C696.408,509.459 696.568,512.889 698.617,517.883C700.619,522.875 704.545,529.205 709.756,535.353C714.959,541.517 720.32,546.436 724.41,549.716C725.785,550.815 727.012,551.728 728.061,552.441C717.494,564.031 708.346,574.951 702.266,583.538C700.9,585.454 693.404,595.503 689.133,601.564C687.527,603.856 685.787,606.384 683.961,609.128L681.156,613.375C680.186,614.847 679.207,616.37 678.217,617.932C674.236,624.172 670.104,631.106 665.012,637.673C662.465,640.952 659.777,643.958 656.949,646.599C655.531,647.935 654.107,649.11 652.592,650.335C651.123,651.527 649.648,652.667 648.189,653.77C645.273,655.975 642.424,658.048 639.811,660.124C637.197,662.195 634.828,664.277 632.832,666.367C632.225,666.994 631.666,667.62 631.133,668.243C630.73,668.373 624.135,678.702 621.371,683.082C618.469,687.696 614.836,693.047 610.414,698.7C606,704.355 600.797,710.297 594.945,716.165C583.24,727.918 571.281,737.175 562.563,743.788C560.582,745.281 551.388,751.644 548.001,754.729C546.73,755.899 545.426,757.218 544.161,758.694C539.636,757.636 529.869,756.315 518.86,753.641C511.267,751.81 504.599,749.565 499.86,747.664C495.118,745.784 492.225,744.346 491.819,744.912C491.434,745.429 493.714,747.942 498.32,750.744C502.9,753.557 509.799,756.469 517.706,758.371C525.61,760.299 532.946,760.981 538.241,761.027C539.816,761.038 541.208,760.997 542.393,760.916C542.086,761.332 541.783,761.754 541.49,762.192C539.489,765.096 537.635,768.411 535.984,771.995C532.671,779.176 530.173,787.466 528.233,796.224C526.295,804.99 525.027,813.399 523.956,821.026L521.263,841.252C519.755,852.735 518.335,859.748 518.982,859.941C519.622,860.142 522.255,853.306 524.655,841.843C525.883,836.126 527.094,829.285 528.391,821.716C529.699,814.149 531.092,805.849 532.987,797.279C534.884,788.717 537.171,780.703 540.089,773.808C541.546,770.358 543.143,767.206 544.883,764.382C546.552,761.596 548.499,759.243 550.424,757.177C552.499,754.971 561.396,748.604 564.527,746.616C573.836,740.663 586.375,731.669 598.396,719.601C604.402,713.58 609.656,707.368 613.998,701.401C618.342,695.441 621.781,689.73 624.354,684.804C626.088,681.498 632.314,671.415 635.225,668.842C637.24,667.041 639.6,665.225 642.238,663.352C644.873,661.476 647.787,659.542 650.836,657.394C652.361,656.318 653.916,655.188 655.479,653.982C656.998,652.814 658.648,651.51 660.178,650.111C663.273,647.313 666.174,644.114 668.855,640.665C674.217,633.741 678.289,626.605 682.043,620.274L692.027,603.429C693.57,600.827 701.113,590.271 704.99,585.646C712.184,577.003 722.604,565.515 734.322,552.814C737.234,549.571 740.008,546.258 742.391,542.774C744.77,539.298 746.758,535.632 748.043,531.851C749.342,528.08 749.875,524.203 749.672,520.63C749.621,519.735 749.531,518.862 749.406,518.011C749.281,517.149 749.09,516.286 748.881,515.498C748.453,513.901 747.912,512.43 747.324,511.072C746.139,508.357 744.781,506.089 743.502,504.18C742.629,502.886 741.791,501.771 741.016,500.799C740.346,499.054 739.471,496.865 738.537,494.279C737.334,490.945 736.08,486.952 735.146,482.414C734.68,480.146 734.279,477.742 733.963,475.228C733.887,474.614 733.809,474.005 733.762,473.372L733.594,471.395L733.238,467.327C732.742,461.82 732.088,456.5 731.043,451.715C730.535,449.341 729.9,447.028 729.277,445.029C728.689,443.02 728.127,441.09 727.553,439.351C727.223,438.332 724.736,430.086 723.148,427.175Z" style="fill:white;fill-rule:nonzero;stroke:white;stroke-width:21.86px;stroke-linecap:square;stroke-linejoin:miter;stroke-miterlimit:1;"/>
            </g>
            <g transform="matrix(1,0,0,1,184.709,827.747)">
                <g transform="matrix(288,0,0,288,1904.16,443.332)">
                </g>
                <text x="785.688px" y="443.332px" style="font-family:'Helvetica';font-size:288px;fill:white;stroke:white;stroke-width:10px;">T<tspan x="922.488px 1075.46px 1228.43px 1381.4px 1534.38px 1607.19px 1743.99px " y="443.332px 443.332px 443.332px 443.332px 443.332px 443.332px 443.332px ">opnotch</tspan></text>
            </g>
            <g transform="matrix(1,0,0,1,190.287,968.129)">
                <g transform="matrix(96,0,0,96,1512.62,443.332)">
                </g>
                <text x="785.688px" y="443.332px" style="font-family:'Helvetica';font-size:96px;fill:white;stroke:white;stroke-width:1px;">W<tspan x="873.898px 924.888px 975.879px 1000.15px 1016.08px 1061.68px 1085.95px 1131.55px 1182.54px 1233.53px 1263.1px 1287.37px 1311.64px 1362.63px 1408.24px 1459.23px " y="443.332px 443.332px 443.332px 443.332px 443.332px 443.332px 443.332px 443.332px 443.332px 443.332px 443.332px 443.332px 443.332px 443.332px 443.332px 443.332px ">hat&apos;s your take?</tspan></text>
            </g>
        </g>
    </g>
</svg>
