<svg width="120" height="120" viewBox="0 0 120 120" fill="none" xmlns="http://www.w3.org/2000/svg">
<g clip-path="url(#clip0)">
<path fill-rule="evenodd" clip-rule="evenodd" d="M13.1255 15C5.87681 15 0.00054935 20.8763 0.00054935 28.125V33.6433C-0.00067286 33.7109 -0.000669935 33.7786 0.00054935 33.8461V91.875C0.00054935 99.1237 5.87681 105 13.1255 105H106.876C114.124 105 120.001 99.1237 120.001 91.875V33.8449C120.002 33.7782 120.002 33.7114 120.001 33.6446V28.125C120.001 20.8763 114.124 15 106.876 15H13.1255ZM108.751 30.5272V28.125C108.751 27.0895 107.911 26.25 106.876 26.25H13.1255C12.09 26.25 11.2505 27.0895 11.2505 28.125V30.5272L60.0005 59.1047L108.751 30.5272ZM11.2505 43.5676V91.875C11.2505 92.9108 12.09 93.75 13.1255 93.75H106.876C107.911 93.75 108.751 92.9108 108.751 91.875V43.5676L62.8452 70.4777C61.0886 71.5074 58.9125 71.5074 57.1559 70.4777L11.2505 43.5676Z" fill="white"/>
</g>
<defs>
<clipPath id="clip0">
<rect width="120" height="120" fill="white"/>
</clipPath>
</defs>
</svg>
